<svg width="135" height="135" viewBox="0 0 135 135" fill="none" xmlns="http://www.w3.org/2000/svg">
<path d="M25.1889 123.095H28.6054C31.1324 123.095 32.3748 124.083 32.3748 125.919C32.3748 127.175 31.4995 127.754 31.1606 127.98V128.008C31.6265 128.178 33.1512 128.799 33.1512 130.549C33.1512 132.427 32.0501 133.74 29.0712 133.74H25.1889V123.095ZM28.4359 127.585C29.763 127.585 30.3418 127.232 30.3418 126.173C30.3418 125.072 29.6359 124.676 28.2665 124.676H27.2783V127.585H28.4359ZM28.7606 132.13C30.1724 132.13 31.0759 131.763 31.0759 130.62C31.0759 129.363 30.1442 129.053 28.4642 129.053H27.2501V132.13H28.7606Z" fill="#00669A"/>
<path d="M34.7183 123.208L36.1583 124.69L37.5983 123.208L36.1583 121.825L34.7183 123.208ZM35.1277 125.693H37.1889V133.74H35.1277V125.693Z" fill="#00669A"/>
<path d="M43.4712 132.145C42.6524 132.145 42.3418 131.651 42.3418 130.451V127.091H44.9253V125.594H42.3418V123.9H42.243L39.0383 126.992V127.091H40.3795C40.3795 127.091 40.3795 128.672 40.3795 130.761C40.3795 132.851 41.8195 133.754 43.3724 133.74C44.9253 133.726 45.1371 133.288 45.1371 133.288L45.123 131.848C44.6147 132.046 43.9936 132.145 43.4712 132.145Z" fill="#00669A"/>
<path d="M48.4265 129.575C48.4265 127.98 49.3583 127.189 50.6994 127.189C51.4194 127.189 52.2524 127.288 52.8594 127.486V125.792C52.2383 125.594 51.4194 125.495 50.6994 125.495C48.1159 125.495 46.4783 127.091 46.4783 129.561C46.4783 132.342 48.0312 133.825 50.9112 133.825C51.6312 133.825 52.4642 133.726 53.0712 133.528V131.848C52.45 132.046 51.73 132.145 51.01 132.145C49.1465 132.243 48.4265 131.255 48.4265 129.575Z" fill="#00669A"/>
<path d="M58.323 125.594C55.7394 125.594 54.2006 127.076 54.2006 129.66C54.2006 132.243 55.8524 133.825 58.323 133.825C60.7936 133.825 62.4453 132.229 62.4453 129.66C62.4453 127.189 60.9065 125.693 58.323 125.594ZM58.323 132.243C56.9818 132.243 56.2618 131.354 56.2618 129.66C56.2618 127.966 56.9818 127.076 58.323 127.076C59.6641 127.076 60.3841 127.867 60.3841 129.66C60.3841 131.255 59.6641 132.243 58.323 132.243Z" fill="#00669A"/>
<path d="M63.7582 123.208L65.1982 124.69L66.6382 123.208L65.1982 121.825L63.7582 123.208ZM64.1677 125.693H66.2288V133.74H64.1677V125.693Z" fill="#00669A"/>
<path d="M73.8512 125.495C72.3547 125.594 71.8888 125.891 71.07 126.483V125.594H69.0088V133.641H71.07V127.881C71.6912 127.486 72.4112 127.189 73.1312 127.189C74.1618 127.189 74.5712 127.683 74.5712 128.982V133.655H76.6323V128.573C76.6323 126.399 75.7147 125.495 73.8512 125.495Z" fill="#00669A"/>
<path d="M77.8323 123.098H79.848L81.8919 132.443L84.5279 125.705L83.6257 123.098H85.6696L88.672 132.387L91.167 123.098H93.1263L89.997 133.74H87.3188L85.3172 127.848L83.1042 133.74H80.3696L77.8323 123.098Z" fill="#00669A"/>
<path d="M94.3076 123.208L95.7476 124.69L97.1876 123.208L95.7476 121.825L94.3076 123.208ZM94.717 125.693H96.7782V133.74H94.717V125.693Z" fill="#00669A"/>
<path d="M106.576 125.693H104.204L101.423 129.265V122.714H99.3617V133.74H101.423V129.575L104.515 133.74H106.844L103.385 129.363L106.576 125.693Z" fill="#00669A"/>
<path d="M108.326 125.693H110.388V133.74H108.326V125.693ZM110.811 123.208L109.357 121.825L107.917 123.208L109.357 124.69L110.811 123.208Z" fill="#00669A"/>
<path d="M47.1 100.125C45 99.4246 42 98.1246 38.8 96.1246C41.3 92.2246 40.4 87.0246 36.6 84.2246L35.8 83.6246L35.1 84.2246C34.3 85.1246 33 86.9246 32.9 89.4246C32.9 90.3246 33 91.1246 33.2 91.8246C31.5 90.3246 29.9 88.6246 28.5 86.8246C32.3 84.2246 33.4 79.1246 31 75.1246L30.5 74.3246L29.6 74.7246C28.6 75.2246 26.6 76.3246 25.5 78.6246C25.1 79.5246 24.8 80.4246 24.7 81.2246C23.5 79.0246 22.5 76.6246 21.7 74.2246C23.8 73.5246 25.5 72.0246 26.6 70.1246C28.1 67.3246 27.6 64.6246 27.4 63.6246L27.2 62.7246L26.2 62.9246C25.1 63.1246 22.9 63.7246 21.2 65.6246L20 67.4246C19.7 65.4246 19.6 63.6246 19.6 62.1246C20.7 61.2246 23 59.1246 23.3 55.6246C23.5 52.9246 22.5 50.2246 20.6 48.2246L20.1 47.7246L19.4 48.0246C16.5 49.4246 14.6 52.4246 14.5 55.6246C14.5 59.1246 16.6 61.3246 17.5 62.1246C17.5 63.8246 17.7 66.0246 18.1 68.5246C17.4 67.8246 16.5 67.3246 15.6 67.0246C13.8 66.4246 11.8 66.3246 9.90001 66.9246L9.10001 67.3246L9.30001 68.2246C9.50001 69.2246 10.4 71.8246 13 73.6246C14.9 75.0246 17.4 75.4246 19.7 74.9246C20.5 77.2246 21.5 79.6246 22.8 82.1246C22.1 81.8246 21.3 81.6246 20.5 81.5246C17.9 81.3246 16 82.3246 15 82.9246L14.2 83.4246L14.7 84.3246C15.2 85.2246 16.7 87.5246 19.7 88.5246C22 89.2246 24.5 88.9246 26.7 87.9246C28.3 90.0246 30.1 91.9246 32.1 93.6246C29.2 93.6246 26.5 95.0246 25 97.5246L24.5 98.3246L25.3 98.9246C26.1 99.5246 28.1 100.825 30.8 100.825H31.6C33.9 100.625 36.1 99.4246 37.6 97.7246C41.1 99.9246 44.3 101.325 46.5 102.025L47.1 100.125V100.125ZM36.1 86.5246C36.8 87.2246 37.7 88.4246 38 90.0246C38.3 91.9246 37.8 93.5246 37.2 94.5246C35.8 93.2246 35.1 91.5246 35.1 89.6246C35.1 88.2246 35.6 87.2246 36.1 86.5246ZM22.9 67.1246C23.8 66.1246 24.8 65.6246 25.6 65.3246C25.9 68.3246 24.2 71.1246 21.4 72.2246C21.2 70.4246 21.7 68.5246 22.9 67.1246V67.1246ZM14.2 71.9246C13.1 71.1246 12.2 70.1246 11.7 68.8246C12.6 68.7246 13.7 68.6246 14.9 69.1246C17.1 69.9246 18.1 71.8246 18.6 73.0246C17.5 73.0246 15.8 73.0246 14.2 71.9246V71.9246ZM27.5 79.7246C28 78.7246 28.8 77.9246 29.7 77.3246C30.1 78.2246 30.4 79.6246 30 81.3246C29.7 82.8246 28.8 84.2246 27.5 85.1246C27 83.8246 26.5 81.7246 27.5 79.7246V79.7246ZM16.7 55.7246C16.7 53.6246 17.9 51.5246 19.7 50.3246C20.4 51.2246 21.5 53.0246 21.3 55.4246C21.1 57.3246 20.2 59.0246 18.7 60.2246C17.9 59.5246 16.7 57.9246 16.7 55.7246ZM20.4 86.6246C19.1 86.2246 18 85.4246 17.2 84.3246C18 83.9246 19.1 83.6246 20.4 83.7246C22.7 83.9246 24.2 85.4246 25 86.5246C23.9 86.8246 22.2 87.2246 20.4 86.6246ZM31.3 98.7246C29.9 98.8246 28.6 98.5246 27.4 97.8246C28 97.1246 28.9 96.4246 30.1 96.0246C32.3 95.3246 34.3 96.1246 35.4 96.7246C34.6 97.6246 33.2 98.5246 31.3 98.7246ZM124.8 67.0246C122 66.1246 118.9 66.7246 116.6 68.6246C117 66.1246 117.2 64.0246 117.2 62.2246C118.1 61.4246 120.3 59.1246 120.2 55.7246C120.2 52.5246 118.2 49.5246 115.3 48.1246L114.6 47.8246L114.1 48.3246C113.6 48.8246 111 51.6246 111.4 55.7246C111.7 58.3246 113 60.6246 115.1 62.2246C115.1 63.6246 115 65.4246 114.7 67.5246L113.5 65.7246C112.2 64.3246 110.4 63.3246 108.5 63.0246L107.5 62.8246L107.3 63.7246C106.2 68.2246 108.6 72.8246 113 74.3246C112.2 76.7246 111.2 79.1246 110 81.3246C109.6 78.4246 107.8 75.9246 105.1 74.8246L104.2 74.4246L103.7 75.2246C101.3 79.2246 102.4 84.3246 106.2 86.9246C104.8 88.7246 103.2 90.4246 101.5 91.9246C102.3 89.2246 101.5 86.3246 99.6 84.3246L99.1 83.5246L98.3 84.1246C94.5 86.9246 93.6 92.1246 96.1 96.0246C92.9 98.0246 89.9 99.3246 87.8 100.025L88.5 102.025C90.8 101.225 94 99.9246 97.4 97.7246C98.3 98.7246 100.3 100.525 103.4 100.825H104.2C106.9 100.825 108.9 99.5246 109.7 98.9246L110.5 98.3246L110 97.5246C108.5 95.0246 105.8 93.6246 102.9 93.6246C104.7 92.0246 106.6 90.1246 108.3 87.9246C110.5 89.0246 113 89.2246 115.3 88.5246C118.3 87.5246 119.8 85.2246 120.3 84.3246L120.8 83.4246L120 82.9246C119 82.3246 117.1 81.2246 114.5 81.5246C113.6 81.6246 112.9 81.8246 112.2 82.1246C113.5 79.6246 114.5 77.2246 115.3 74.9246C117.6 75.4246 120.1 75.0246 122 73.6246C123.9 72.3246 125.2 70.4246 125.7 68.2246L125.9 67.3246L124.8 67.0246V67.0246ZM110 69.2246C109.2 67.7246 109.1 66.3246 109.2 65.3246C110.2 65.6246 111.2 66.3246 111.9 67.1246C113.4 68.8246 113.5 71.0246 113.4 72.3246C111.9 71.7246 110.8 70.6246 110 69.2246ZM96.9 90.0246C97.1 88.7246 97.8 87.4246 98.8 86.5246C99.3 87.2246 99.8 88.3246 99.8 89.6246C99.9 91.9246 98.6 93.6246 97.7 94.5246C97.2 93.5246 96.6 91.9246 96.9 90.0246V90.0246ZM104.8 96.1246C106 96.5246 106.9 97.2246 107.5 97.9246C106.3 98.6246 105 98.9246 103.6 98.8246C102.1 98.6246 100.6 97.9246 99.5 96.9246C101.1 95.9246 103 95.6246 104.8 96.1246ZM113.6 55.5246C113.4 53.1246 114.5 51.3246 115.2 50.4246C118.2 52.2246 119.1 56.1246 117.3 59.1246C117 59.6246 116.6 60.0246 116.2 60.4246C114.7 59.2246 113.8 57.4246 113.6 55.5246ZM104.9 81.2246C104.5 79.6246 104.8 78.2246 105.2 77.2246C105.9 77.7246 106.8 78.5246 107.4 79.6246C108.4 81.7246 107.9 83.8246 107.5 85.0246C106.2 84.1246 105.3 82.7246 104.9 81.2246V81.2246ZM114.6 83.7246C115.9 83.6246 117 83.9246 117.8 84.3246C117.2 85.1246 116.2 86.1246 114.6 86.6246C113.1 87.1246 111.5 87.1246 110 86.5246C111 84.9246 112.7 83.9246 114.6 83.7246ZM120.7 71.9246C119.4 72.8246 117.8 73.2246 116.3 73.0246C116.9 71.2246 118.3 69.8246 120 69.1246C121.2 68.6246 122.4 68.7246 123.2 68.8246C122.8 69.7246 122.1 70.9246 120.7 71.9246V71.9246Z" fill="#339966"/>
<path d="M70.8 99.3246C71.5 98.9246 72 98.3246 71.9 97.3246C71.7 95.9246 70.5 95.4246 68.9 95.3246V93.3246H67.7V95.2246H66.7V93.3246H65.5V95.3246H63V96.6246H63.9C64.4 96.6246 64.6 96.9246 64.6 97.1246V102.625C64.6 102.725 64.5 103.025 64.1 103.025H63.2L63 104.525H65.5V106.525H66.7V104.525H67.7V106.525H68.9V104.525C71 104.425 72.4 103.925 72.6 102.025C72.7 100.325 72 99.6246 70.8 99.3246ZM66.7 96.6246C67.4 96.6246 69.6 96.4246 69.6 97.8246C69.6 99.2246 67.4 99.0246 66.7 99.0246V96.6246ZM66.7 102.925V100.225C67.5 100.225 70.1 100.025 70.2 101.525C70.1 103.025 67.5 102.925 66.7 102.925Z" fill="#00669A"/>
<path d="M67.4 113.425C59.9 113.425 53.8 107.325 53.8 99.8246C53.8 92.3246 59.9 86.2246 67.4 86.2246C74.9 86.2246 81 92.3246 81 99.8246C81 107.325 74.9 113.425 67.4 113.425ZM67.4 89.1246C61.4 89.1246 56.6 93.9246 56.6 99.9246C56.6 105.925 61.4 110.725 67.4 110.725C73.4 110.725 78.2 105.925 78.2 99.9246C78.2 93.9246 73.4 89.1246 67.4 89.1246Z" fill="#00669A"/>
<path d="M96.4 80.5246L94.3 78.4246H94C93.7 78.7246 94.9 79.7246 95.1 79.9246L96.1 80.8246L96.4 81.1246C96.6 81.1246 96.9 81.0246 96.7 80.8246L96.4 80.5246V80.5246ZM38.9 23.6246L39.1 23.8246L39.3 24.0246L40.9 25.6246L41.1 25.7246C41.3 25.8246 41.2 25.3246 41.2 25.2246C41.1 25.0246 40.9 24.9246 40.8 24.7246C40.4 24.3246 40 24.0246 39.6 23.7246C39.4 23.5246 38.9 22.7246 38.7 22.7246H38.4V23.0246C38.3 23.0246 38.9 23.6246 38.9 23.6246V23.6246ZM95 24.5246C95.5 24.5246 96.4 23.2246 96.6 23.0246L96.7 22.9246V22.6246C96.3 22.3246 94.6 24.2246 94.8 24.4246L95 24.5246V24.5246ZM41.7 77.2246L40.2 78.7246L38.3 80.6246C38.2 80.7246 38 81.1246 38.4 81.1246L38.6 81.0246L41.9 77.7246L42.1 77.5246V77.2246C42 77.1246 41.8 77.1246 41.7 77.2246V77.2246ZM108.5 51.6246H106.5L106.3 51.8246L106.5 52.0246H108.5L108.7 51.8246C108.8 51.7246 108.7 51.6246 108.5 51.6246ZM27.2 52.0246H29.3C29.5 52.0246 29.7 52.0246 29.7 51.8246L29.5 51.6246H26.3L26.1 51.8246C26.1 52.1246 26.4 52.0246 26.6 52.0246H27.2V52.0246ZM67.4 12.7246L67.6 12.5246C67.6 12.0246 67.7 11.3246 67.6 10.9246C67.5 10.5246 67.3 10.6246 67.2 10.8246C67 11.2246 67.1 12.0246 67.2 12.4246L67.3 12.6246L67.4 12.7246V12.7246ZM105.7 66.9246C105.2 66.5246 103.5 66.0246 103.2 65.9246L102.9 66.0246L103 66.3246L105.4 67.3246H105.6L105.8 67.2246L105.7 66.9246V66.9246ZM29.2 36.7246L29.4 36.8246C29.5 36.9246 29.7 37.0246 29.8 37.0246C30 37.1246 30.6 37.3246 30.8 37.4246C31 37.5246 31.2 37.6246 31.4 37.6246C31.6 37.7246 31.8 37.7246 32 37.8246C32.3 37.9246 32.4 37.8246 32.3 37.5246C31.9 37.4246 31.6 37.2246 31.2 37.1246C31.1 37.0246 30.9 37.0246 30.8 36.9246C30.3 36.7246 29.8 36.5246 29.3 36.4246L29 36.5246C28.9 36.5246 29.2 36.7246 29.2 36.7246V36.7246ZM81.4 16.9246C81.5 16.9246 81.6 16.9246 81.7 16.7246C82.2 15.8246 82.5 14.8246 82.8 13.8246V13.5246L82.6 13.3246C82.3 13.2246 81.3 16.2246 81.2 16.5246C81.2 16.8246 81.3 16.9246 81.4 16.9246V16.9246ZM53.3 87.2246C52.9 87.0246 52.2 89.4246 52.1 89.7246L52 90.0246C52.1 90.3246 52.4 90.2246 52.5 90.0246L53.1 88.5246L53.5 87.6246L53.3 87.2246V87.2246ZM102.2 37.6246L105.4 36.3246C105.5 36.2246 105.8 35.9246 105.5 35.8246H105.3C104.9 36.0246 101.8 37.0246 102 37.4246L102.2 37.6246V37.6246ZM31.8 66.3246L29.5 67.3246H29.4C29.3 67.3246 29.2 67.5246 29.3 67.6246L29.5 67.7246H29.7L32 66.7246C32.2 66.6246 32.1 66.3246 31.8 66.3246V66.3246ZM51.6 14.1246L51.7 14.4246L51.8 14.6246L52.3 15.8246L52.4 16.0246L52.6 16.1246H52.7C52.8 16.1246 52.9 15.9246 52.8 15.8246L52.7 15.6246V15.5246L52.6 15.2246L52.5 15.0246L52.4 14.7246L52.2 14.4246L52 13.8246L51.9 13.7246C51.9 13.6246 51.7 13.5246 51.6 13.6246C51.5 13.6246 51.4 13.8246 51.5 13.9246V14.0246L51.6 14.1246ZM83.4 89.6246L82.5 87.5246C82.5 87.4246 82.3 87.3246 82.2 87.4246C82.1 87.4246 82 87.6246 82.1 87.7246L82.9 89.7246C83 89.9246 83.4 90.2246 83.4 89.8246V89.6246ZM101.5 74.2246L97.2 71.2246C97.1 71.1246 97 71.0246 96.9 71.1246C96.8 71.2246 98.8 72.9246 98.9 73.0246L99.2 73.2246L99.5 73.4246L101.6 74.8246H101.7C102 74.8246 101.8 74.4246 101.5 74.2246C101.6 74.3246 101.6 74.2246 101.5 74.2246V74.2246ZM33.3 29.3246L33.6 29.5246L33.9 29.7246L34 29.8246L34.2 29.9246L34.3 30.0246L34.6 30.2246L34.8 30.4246L35 30.6246L35.3 30.8246L35.5 30.9246L35.7 31.1246L36 31.3246L36.3 31.5246L36.5 31.6246L36.8 31.8246L37 31.9246L37.1 32.0246H37.2L37.4 31.9246C37.5 31.8246 37.4 31.7246 37.3 31.6246L37.2 31.5246L34.4 29.7246L34.3 29.6246L34.2 29.5246L33.3 28.9246C33.2 28.8246 33.1 28.9246 33 29.0246C32.9 29.1246 33 29.2246 33.1 29.3246H33.3V29.3246ZM88.7 20.1246C89.2 20.0246 90.2 18.0246 90.4 17.7246C90.5 17.6246 90.4 17.5246 90.3 17.4246C90.2 17.3246 90.1 17.4246 90 17.5246L88.5 19.8246C88.4 19.9246 88.5 20.0246 88.6 20.1246H88.7V20.1246ZM46.7 82.5246L44.5 85.9246C44.3 86.3246 44.8 86.2246 45 86.0246C45.7 84.9246 46.4 83.9246 47.1 82.8246C47.2 82.7246 47.1 82.6246 47 82.5246H46.7V82.5246ZM104.8 44.0246L104.6 44.2246L104.8 44.4246H104.9L107.7 43.9246C107.8 43.9246 107.9 43.8246 107.9 43.6246C107.9 43.5246 107.8 43.4246 107.6 43.4246L104.8 44.0246V44.0246ZM29.7 59.5246C29.9 59.5246 30 59.4246 30 59.2246C30 59.1246 29.9 59.0246 29.7 59.0246H29.6L27.1 59.7246C27 59.7246 26.9 59.8246 26.9 60.0246L27.1 60.2246H27.4L29.7 59.5246ZM59.5 13.0246V13.2246L59.6 13.5246L59.7 13.8246L59.8 14.1246V14.3246L60 14.5246C60.1 14.5246 60.2 14.4246 60.2 14.2246V14.1246L59.9 12.9246V12.6246L59.8 12.3246L59.7 12.0246L59.6 11.7246V11.4246C59.6 11.3246 59.5 11.2246 59.3 11.2246C59.2 11.2246 59.1 11.3246 59.1 11.5246V11.6246L59.5 13.0246V13.0246ZM107.9 59.0246L105.3 58.5246L105 58.7246L105.2 59.0246C106.1 59.2246 107 59.5246 107.9 59.5246L108.1 59.3246C108.1 59.1246 108 59.0246 107.9 59.0246V59.0246ZM27 44.6246L29.6 45.1246C29.9 45.2246 30.2 44.8246 29.8 44.7246H29.7C29.1 44.6246 28.4 44.5246 27.8 44.4246C27.6 44.4246 26.8 44.1246 26.7 44.5246L27 44.6246V44.6246ZM74.4 13.7246C74.5 13.7246 74.5 13.7246 74.4 13.7246C75 13.7246 75 11.8246 75.1 11.5246V11.3246L74.9 11.2246C74.5 11.2246 74.4 13.1246 74.3 13.5246L74.4 13.7246C74.4 13.7246 74.3 13.6246 74.4 13.7246ZM99.4 30.5246C100 30.4246 101.5 29.2246 101.7 29.0246L101.8 28.7246H101.5L99.4 30.1246C99.3 30.2246 99.1 30.3246 99.2 30.5246C99.2 30.5246 99.3 30.6246 99.4 30.5246V30.5246ZM44.9 18.6246L45.9 20.1246C46 20.3246 46.3 21.0246 46.5 21.0246C47.1 21.1246 46.5 20.3246 46.5 20.2246L45.1 18.1246C45 18.0246 44.5 17.2246 44.3 17.6246L44.4 18.0246L44.9 18.6246V18.6246ZM90.5 85.8246C90.3 85.5246 89.4 83.6246 89 83.9246L88.9 84.2246L90.1 86.1246V86.2246C90.3 86.3246 90.6 86.1246 90.5 85.8246V85.8246ZM87.7 27.1246L87.5 27.3246L87.3 27.5246L87 27.8246L86.8 28.1246L86.7 28.3246L86.4 28.7246L86.2 28.9246V29.2246H86.3L86.5 29.1246L86.6 28.9246L86.7 28.8246L86.9 28.5246L87 28.4246L88 27.2246L88.2 27.0246V26.7246H87.9L87.7 27.1246V27.1246ZM48.9 74.4246V74.1246C48.6 73.8246 47 76.0246 46.7 76.3246C46.4 76.7246 46.7 77.0246 47 76.6246L48.8 74.6246L48.9 74.4246V74.4246ZM42.7 31.5246L42.9 31.7246L43.2 31.9246L43.3 32.0246L43.7 32.3246L43.8 32.4246H43.9L44.1 32.3246V32.0246L44 31.9246L43.9 31.8246L43.7 31.6246L43.6 31.5246L42.9 30.9246H42.6V31.2246L42.7 31.5246V31.5246ZM64.3 20.5246L64.5 21.4246C65 21.7246 65 19.4246 64.5 19.5246C64.3 19.5246 64.2 20.0246 64.3 20.5246ZM70.6 83.6246L70.4 81.6246C70.4 81.4246 70.4 81.3246 70.2 81.3246C69.8 81.3246 70.2 83.6246 70.2 83.9246C70.2 84.3246 70.6 84.2246 70.6 83.8246V83.6246ZM76 23.1246L76.3 22.8246C76.4 22.5246 77.1 20.8246 76.7 20.6246C76.3 20.5246 75.9 22.4246 75.8 22.7246V22.9246L76 23.1246ZM59 80.2246L58.7 80.3246L58 82.5246V82.8246C58.1 83.0246 58.3 83.0246 58.4 82.8246L58.5 82.6246V82.5246L58.6 82.2246V82.1246L59 80.7246L59.1 80.4246C59.2 80.3246 59.1 80.2246 59 80.2246ZM52.4 23.1246L52.3 23.3246L52.4 23.6246C52.7 24.2246 53.3 25.5246 53.4 25.4246C53.6 25.3246 53.6 25.0246 53.6 25.0246C53.4 24.6246 53.3 24.1246 53 23.7246C53 23.8246 52.6 23.1246 52.4 23.1246ZM82.5 80.5246C82.6 80.5246 82.7 80.4246 82.6 80.1246C82.5 79.6246 82 78.9246 81.8 78.4246L81.7 78.2246C81.2 77.9246 81.6 79.0246 81.6 79.1246L82.2 80.1246C82.2 80.4246 82.4 80.5246 82.5 80.5246ZM82.6 23.3246L82.5 23.6246L82.3 23.9246L82.1 24.1246L81.9 24.4246L81.8 24.7246L81.7 24.9246L81.5 25.4246L81.4 25.6246C81.3 25.7246 81.4 25.8246 81.5 25.9246H81.6L81.8 25.8246L81.9 25.6246V25.5246L82.1 25.2246L82.2 25.1246L82.9 23.8246L83 23.5246C83.1 23.4246 83 23.3246 82.9 23.2246L82.6 23.3246V23.3246ZM53.7 77.5246L54 77.0246C54.1 76.9246 54 76.8246 53.9 76.7246C53.8 76.6246 53.7 76.7246 53.6 76.8246C53.2 77.6246 51.7 79.5246 51.9 80.3246C52.1 80.3246 52.3 80.3246 52.3 80.1246L53.7 77.5246V77.5246ZM58.1 21.2246L58.6 23.0246L58.7 23.3246C58.9 23.4246 59.1 23.2246 59 23.1246L58.4 20.9246C58.4 20.8246 58.2 20.7246 58.1 20.8246V21.2246ZM76.7 82.3246L76.2 80.7246V80.6246C76.2 80.5246 76 80.4246 75.9 80.5246C75.4 80.6246 76.2 82.4246 76.3 82.7246C76.4 82.9246 76.7 83.2246 76.8 82.8246V82.6246L76.7 82.3246V82.3246ZM70.2 21.9246L70.5 21.6246L70.7 20.1246V19.6246C70.6 19.5246 70.3 19.5246 70.3 19.7246V19.8246L70.1 21.7246C70 21.8246 70.1 21.9246 70.2 21.9246V21.9246ZM64.8 81.5246C64.5 81.5246 64.6 81.8246 64.5 82.0246L64.4 82.8246L64.3 83.8246V84.0246L64.5 84.2246L64.7 84.0246V83.3246L64.8 82.0246V81.7246C65 81.6246 64.9 81.5246 64.8 81.5246V81.5246ZM47 26.9246L47.1 27.1246L48.1 28.3246L48.5 28.5246C48.6 27.9246 47.7 27.0246 47.3 26.6246C47 26.3246 46.9 26.6246 47 26.9246ZM87.7 76.5246C87 75.6246 86.4 74.6246 85.6 73.9246L85.4 73.7246H85.1V74.0246L86.6 75.9246C86.7 76.1246 88 77.6246 88 77.0246L87.9 76.8246L87.7 76.5246V76.5246ZM57.5 32.5246C56.8 30.9246 55.8 29.5246 55.2 28.0246L55.1 27.8246C55 27.6246 54.7 26.6246 54.3 26.6246C54 26.6246 56.7 31.9246 56.8 32.1246C57 32.4246 57.2 32.7246 57.5 32.5246V32.5246ZM61.9 32.4246L61.8 32.2246L60.4 27.4246L60.3 27.1246L60.2 26.9246L59.8 25.5246V25.2246L59.5 24.1246C59.5 24.0246 59.3 23.9246 59.2 24.0246C59.1 24.0246 59 24.2246 59.1 24.3246L59.2 24.6246C59.8 27.3246 60.7 30.0246 61.6 32.7246H62.1L61.9 32.4246V32.4246ZM66.1 33.3246C66 32.1246 65.7 30.8246 65.7 29.6246C65.7 28.4246 65.5 27.2246 65.4 26.1246L65.2 24.3246C65.2 24.1246 65.2 23.0246 64.9 22.9246C64.7 22.9246 64.6 23.2246 64.6 23.4246L65.5 33.4246C65.5 33.8246 65.4 34.7246 65.8 34.8246C65.9 34.5246 66.4 36.2246 66.4 35.9246L66.1 33.3246ZM63.6 31.5246C62.8 27.9246 61.9 24.3246 61.4 20.6246V20.4246L61.3 20.1246L60.5 15.9246C60.5 15.7246 60.4 15.5246 60.2 15.4246C59.9 16.1246 60.3 17.3246 60.4 18.0246C61 21.2246 61.7 24.5246 62.4 27.7246L63.5 33.9246C63.6 34.5246 63.1 33.9246 64 33.9246L63.6 31.5246V31.5246ZM59.9 33.5246C60.9 35.7246 59.3 32.4246 59.3 32.5246C58.6 30.2246 58.7 30.7246 57.8 28.4246C57.5 27.5246 56.8 26.1246 56.4 25.0246C56.1 24.1246 55.6 22.9246 55.2 22.0246C54.9 21.2246 54.7 20.6246 54.3 19.8246C54 19.2246 53.6 17.9246 53.4 17.2246C53.4 17.1246 53.2 17.0246 53.1 17.1246C53 17.1246 52.9 17.3246 53 17.4246C53.2 17.7246 53.4 18.7246 53.6 19.1246C53.8 19.8246 54.1 20.4246 54.3 21.1246C54.8 22.4246 55.3 23.8246 55.8 25.1246C56.8 27.7246 57.8 30.2246 58.8 32.7246C59 33.4246 60.2 33.5246 59.9 33.5246V33.5246ZM54.7 32.5246L54.1 31.8246C53.4 30.4246 53 30.0246 52.2 28.8246L50.1 25.7246C49.9 25.3246 48.7 24.1246 48.7 23.6246L48.5 23.3246L48.3 23.1246L47.4 21.8246L47.1 21.7246L47 22.0246L50.8 27.7246L54.2 33.1246C54.6 33.7246 54.2 33.2246 55 33.0246C55.3 33.1246 54.7 32.5246 54.7 32.5246V32.5246ZM49.1 33.1246L48.2 32.2246L47.9 32.0246L46.2 30.3246L46 30.0246L45.7 29.8246C45.2 29.5246 44.8 28.9246 44.4 28.5246L43.1 27.2246C42.8 26.9246 42.6 26.6246 42.2 26.6246V26.9246C43.7 28.4246 45.2 30.0246 46.7 31.6246C46.9 31.8246 48 32.8246 48.2 33.0246C48.4 33.2246 48.8 33.4246 49.1 33.1246V33.1246ZM52.5 33.3246C52.3 32.6246 51.2 31.3246 50.7 30.8246C50.6 30.7246 49.3 29.2246 49.2 29.5246L49.3 29.8246L50.7 31.6246C51 32.0246 52.1 33.7246 52.7 33.7246L52.5 33.3246ZM65.2 74.4246L65.1 75.2246V76.5246L64.9 78.8246L64.8 79.1246V79.5246L64.7 80.3246L64.9 80.5246L65.1 80.3246V79.5246L65.3 77.6246L65.5 75.5246L65.6 74.9246C65.6 74.6246 65.2 74.3246 65.2 74.4246V74.4246ZM63.2 73.3246C63.1 74.9246 62.6 76.5246 62.3 78.0246L60.9 85.6246L60.8 86.4246L60.9 86.8246L61.2 86.5246C61.5 85.5246 61.6 84.4246 61.8 83.4246L62.4 80.3246L63.5 74.4246L63.6 74.1246L63.7 73.8246V73.4246L63.3 73.2246L63.2 73.3246V73.3246ZM36.3 64.4246L35.6 64.7246L33.2 65.7246C33.1 65.7246 33 65.9246 33.1 66.0246L33.3 66.1246H33.4L36.6 64.8246V64.3246L36.3 64.4246V64.4246ZM54.8 82.8246L53.7 85.7246C53.5 86.1246 53.8 86.5246 54 86.0246L59.2 72.9246C59.1 72.8246 58.9 72.9246 58.8 73.0246L58.6 73.4246L54.8 82.8246V82.8246ZM36.4 45.8246H36L31.6 44.9246L31.4 45.1246C31.3 45.6246 36.1 46.3246 36.6 46.2246V45.8246H36.4V45.8246ZM36.2 51.6246C36.2 51.6246 36.1 51.6246 36.2 51.6246H31.5L31.3 51.8246L31.5 52.0246H36.8V51.7246C36.7 51.5246 36.4 51.6246 36.2 51.6246V51.6246ZM36.3 57.8246L36 57.9246L32.7 58.5246C32.4 58.5246 31.2 58.7246 31.3 59.1246L31.5 59.3246L34.3 58.7246H34.5L34.8 58.6246L36.5 58.3246V57.8246H36.3V57.8246ZM53.4 72.4246L52.7 73.5246L47.7 81.0246C47.5 81.2246 47.6 81.9246 47.9 81.5246L49.5 79.1246L49.6 79.0246C50.8 76.9246 52.1 74.9246 53.6 73.0246C53.4 72.8246 53.6 72.2246 53.4 72.4246ZM55.1 74.1246L54.9 74.4246L54.8 74.7246V74.8246L54.5 75.4246C54.5 75.7246 54.6 76.1246 54.9 75.6246L56.3 73.0246L56.4 72.9246H55.9L55.1 74.1246ZM45.9 73.1246L45.6 73.4246L43.7 75.3246L43 76.0246C42.7 76.4246 42.7 76.9246 43.2 76.4246L46.6 73.0246L46.9 72.7246H46.3L45.9 73.1246V73.1246ZM49.4 73.1246C49.3 73.3246 49.6 73.6246 49.8 73.3246L50.1 72.9246C49.9 72.9246 49.9 72.6246 49.7 72.6246L49.4 73.1246ZM60.9 73.0246L60.7 73.7246V73.8246L60 76.1246L59.1 79.0246L59.2 79.4246C59.4 79.4246 59.4 79.2246 59.5 79.1246L61.2 73.3246L61.3 73.0246L61.4 72.8246H60.9V73.0246V73.0246ZM36.3 72.4246C35.8 72.6246 35.3 73.1246 34.8 73.4246L33.4 74.3246C33.3 74.4246 33 74.5246 33 74.7246C33 74.9246 33.3 74.9246 33.5 74.8246L35 73.8246C35.4 73.5246 36 73.3246 36.3 72.9246L36.4 72.8246L36.5 72.7246V72.2246L36.3 72.4246V72.4246ZM37.6 72.0246L37.7 71.7246L37.4 71.6246H37.3L37.1 71.7246L36.8 71.9246L36.5 72.1246V72.6246L37.6 72.0246C37.6 72.1246 37.6 72.1246 37.6 72.0246V72.0246ZM36.3 54.4246L35.5 54.5246C35.3 54.5246 35 54.5246 35 54.8246L35.2 55.0246H35.4L37.6 55.1246L36.6 54.4246H36.3V54.4246Z" fill="#9C0606"/>
<path d="M36.9 54.6246L36.7 54.4246H36.6V54.8246H36.8L36.9 54.6246V54.6246ZM36.5 48.7246L35.4 48.6246H35.3L35.1 48.8246L35.3 49.0246L36.9 49.3246C37.2 49.3246 36.5 49.0246 36.5 48.7246ZM69.4 34.5246V32.9246L69.5 31.5246V31.2246L70 26.1246L70.3 22.8246L70.1 22.6246C69.8 22.6246 69.7 23.5246 69.7 23.7246L69.6 25.6246L68.8 34.9246C69.1 34.9246 69.4 34.5246 69.4 34.5246V34.5246ZM70.9 33.3246C71.4 33.1246 71.3 32.2246 71.5 31.0246L72.1 27.6246L72.9 23.4246L74.4 15.1246L74.2 14.8246L73.9 15.0246L73.8 15.3246L72.1 24.1246L71.3 28.6246C71 30.2246 70.6 31.7246 70.5 33.3246C70.8 33.1246 70.8 33.3246 70.9 33.3246ZM84.6 31.6246L85.7 30.3246V30.0246H85.4C84.8 30.7246 83.4 32.4246 83.1 33.3246C83.3 33.4246 83.5 33.0246 83.7 32.8246L84.6 31.6246ZM87 32.5246C87.3 32.4246 87.6 32.0246 87.8 31.8246L89.6 30.0246L93.4 26.2246L93.6 26.0246L94 25.5246V25.3246C93.9 25.2246 93.8 25.2246 93.8 25.3246L93.6 25.5246L89.6 29.6246L87.7 31.5246L86.8 32.4246L86.4 32.8246C86.5 32.5246 86.8 32.6246 87 32.5246V32.5246ZM97.9 31.6246L98 31.3246C97.7 30.9246 96 32.3246 95.8 32.5246C96 32.5246 96.5 32.6246 96.6 32.5246L97.9 31.6246V31.6246ZM80.6 32.4246L80.8 32.2246L81.7 30.8246L87.7 21.8246C87.8 21.6246 87.9 21.3246 87.7 21.3246C87.6 21.2246 87.4 21.4246 87.3 21.5246L85.4 24.3246C84.8 25.3246 84 26.2246 83.4 27.3246L79.8 32.7246C80.3 32.5246 80.5 32.6246 80.6 32.4246ZM73.5 32.3246L74.9 27.5246L75 27.2246V27.0246L75.4 25.6246V25.4246L75.7 24.3246L75.6 24.0246C75.5 24.0246 75.4 24.0246 75.3 24.2246L75.2 24.5246C74.7 25.7246 74.4 27.1246 74 28.3246L73.4 30.5246L72.8 32.6246H73.3C73.5 32.5246 73.5 32.4246 73.5 32.3246V32.3246ZM75.2 32.7246L75.5 32.1246L76.2 30.4246L81 18.4246L81.1 18.1246L80.8 17.9246L80.6 18.1246L77.7 25.3246L76.2 28.9246L75.5 30.7246C75.4 31.0246 74.6 32.6246 74.8 32.8246C74.9 32.9246 75 32.8246 75.2 32.7246V32.7246ZM98.4 45.8246L98.7 45.7246H99C100.5 45.5246 102.1 45.1246 103.6 44.7246C103.7 44.7246 103.8 44.6246 103.8 44.4246C103.8 44.3246 103.7 44.2246 103.5 44.2246L101.9 44.5246H101.7L101.5 44.6246L98.5 45.2246C98.3 45.3246 98.3 45.8246 98.4 45.8246ZM99.8 38.7246L100.8 38.3246C100.9 38.3246 101 38.1246 100.9 38.0246C100.9 37.9246 100.7 37.8246 100.6 37.9246L98.4 38.8246V39.3246L99.8 38.7246ZM77.7 33.0246H77.9L79.6 29.9246L80.3 28.7246L80.9 27.7246L81.4 26.8246C81.5 26.7246 81.4 26.6246 81.3 26.5246C81.2 26.4246 81.1 26.5246 81 26.6246L80.9 26.8246C80.6 27.1246 80.5 27.6246 80.3 28.0246L79.5 29.5246C79 30.5246 78.3 31.5246 77.9 32.5246C77.6 32.5246 77.5 33.1246 77.7 33.0246V33.0246ZM71.5 73.4246C72.3 77.4246 72.9 81.5246 73.9 85.4246L74 85.6246C74.4 86.1246 74.3 84.8246 74.3 84.7246L74 83.5246L73.4 80.8246C72 73.5246 71.7 73.4246 71.7 72.8246C71.7 73.1246 71.6 73.0246 71.4 73.0246L71.5 73.4246ZM81.6 73.2246L81.8 73.5246L87.9 82.6246L88.1 82.8246L88.4 82.7246L88.3 82.4246C86.3 79.2246 83.9 76.2246 81.9 72.9246L81.8 72.8246H81.3L81.6 73.2246V73.2246ZM78.6 73.4246L79 74.1246L80.8 77.6246V77.7246H81L81.2 77.5246V77.4246C80.4 76.1246 79.6 74.6246 79 73.2246L78.9 73.0246L78.8 72.9246H78.3L78.6 73.4246V73.4246ZM76.3 73.8246L76.4 74.0246L76.5 74.2246L77.5 76.5246L78.7 79.4246L81.7 86.6246L81.8 86.7246C82.4 87.1246 81.9 85.8246 81.8 85.7246L81.1 84.1246L79.7 80.7246L76.8 73.7246V73.6246L76.7 73.3246L76.4 72.3246L76 72.4246C75.9 72.3246 76.3 73.8246 76.3 73.8246V73.8246ZM69.3 75.0246L69.4 75.6246L69.8 79.7246L69.9 80.0246C70.2 80.4246 70.3 79.7246 70.3 79.5246C70.3 78.7246 70.2 77.8246 70.1 77.0246C70.1 76.7246 69.8 74.9246 69.8 74.3246C69.5 74.5246 69.4 74.8246 69.3 75.0246V75.0246ZM87.3 72.0246C87.6 72.5246 89.2 73.9246 89.6 74.3246L91.1 75.8246L92.3 77.0246C92.4 77.1246 93.1 77.9246 93.1 77.3246L93 77.1246L90.4 74.6246L89.3 73.5246L88.3 72.4246L87.3 72.0246V72.0246ZM104.2 51.6246H98.2C98.2 51.8246 98 52.1246 98 52.1246C98.2 52.2246 99.5 52.0246 99.7 52.0246H104.2L104.4 51.8246L104.2 51.6246V51.6246ZM98.3 64.4246C98.3 64.7246 101 65.5246 101.4 65.6246H101.5C101.8 65.6246 101.7 65.3246 101.6 65.2246C101.5 65.0246 100.8 64.9246 100.6 64.8246L98.3 63.9246V64.4246V64.4246ZM99.2 57.9246L103.8 58.7246H104C104.1 58.6246 104.1 58.4246 104 58.3246C103.5 57.9246 102.3 58.0246 101.7 57.9246L98.5 57.3246L97.9 57.2246L97.8 57.8246L99.2 57.9246V57.9246ZM73.4 72.7246L73.5 73.0246L75.3 79.0246C75.4 79.4246 75.7 79.4246 75.8 79.0246C75.8 78.5246 75.5 77.8246 75.4 77.3246L74.6 74.5246L74.1 73.0246C74.1 72.8246 74 72.6246 73.9 72.5246C73.8 72.7246 73.4 72.8246 73.4 72.7246V72.7246ZM67.2 77.5246V85.5246C67.3 85.6246 67.5 85.6246 67.6 85.5246C67.7 85.3246 67.6 85.0246 67.6 84.7246V77.2246H67.1L67.2 77.5246ZM98.6 49.2246C98.8 49.2246 99.8 49.2246 99.8 48.9246C99.8 48.5246 99.1 48.7246 98.9 48.8246L98.1 48.9246V49.4246L98.6 49.2246ZM97.9 54.9246H99.6L99.7 54.8246V54.5246L99.4 54.4246L98.1 54.3246C98 54.6246 97.7 54.9246 97.9 54.9246ZM91.7 32.4246L92.4 31.8246L92.6 31.5246L92.4 31.2246L92.2 31.3246L91.1 32.2246L90.8 32.5246H91.2L91.7 32.4246V32.4246ZM67.7 35.8246L67.6 34.2246V26.4246L67.5 16.0246V13.9246C67.2 13.4246 67.1 14.3246 67.1 14.4246V34.9246C67.1 35.2246 67.2 36.9246 67.4 37.1246C67.8 37.0246 67.8 36.3246 67.7 35.8246V35.8246Z" fill="#9C0606"/>
<path d="M53.4 48.1246C52.4 48.1246 51.3 48.4246 50.3 49.0246V44.4246H47.7V58.4246C48.6 58.7246 49.8 59.1246 52 59.1246C54.9 59.1246 57.6 57.6246 57.6 53.2246C57.7 49.9246 56.1 48.1246 53.4 48.1246V48.1246ZM52.1 56.9246L50.3 56.7246V51.0246C51.1 50.5246 52 50.2246 52.7 50.2246C54.1 50.2246 55 51.0246 55 53.1246C55 55.6246 53.9 56.9246 52.1 56.9246V56.9246ZM85.7 56.6246L82.9 48.2246H80.4L81.2 51.0246L79.1 56.7246L76.5 48.2246H74L77.3 58.8246H80.4L82.3 53.5246L84.1 58.8246H87.2L90.4 48.2246H87.9L85.7 56.6246Z" fill="#00669A"/>
<path d="M73.8 32.5246C71.3 32.5246 68.9 33.7246 67.4 35.8246C66.6728 34.805 65.7127 33.9737 64.5995 33.3997C63.4864 32.8258 62.2524 32.5258 61 32.5246H36.5V72.9246H61.6C64 72.9246 66 74.9246 66 77.3246H68.8C68.8 74.9246 70.8 72.9246 73.2 72.9246H98.3V32.5246H73.8ZM66 71.5246C64.7432 70.545 63.1934 70.0167 61.6 70.0246H39.4V35.4246H61.1C63.8 35.5246 65.9 37.6246 66 40.3246V71.5246ZM95.5 70.1246H73.2C71.6 70.1246 70.1 70.6246 68.8 71.6246V40.3246C68.9 37.6246 71 35.5246 73.7 35.4246H95.4L95.5 70.1246V70.1246Z" fill="#00669A"/>
<path d="M113.2 42.4246C108.8 17.1246 84.7 0.224609 59.4 4.62461C40.1 8.02461 25 23.1246 21.6 42.4246L18.9 41.9246C23.6 15.1246 49.2 -2.77539 76 1.92461C96.4 5.52461 112.4 21.5246 116 41.9246L113.2 42.4246V42.4246Z" fill="#00669A"/>
</svg>
