
    
        
<svg width="310" height="282" viewBox="0 0 310 282" version="1.1" xmlns="http://www.w3.org/2000/svg" xmlns:xlink="http://www.w3.org/1999/xlink">
    <svg><svg width="310" height="282" viewBox="0 0 310 282" version="1.1" xmlns="http://www.w3.org/2000/svg" xmlns:xlink="http://www.w3.org/1999/xlink">    <g id="Canvas_1" transform="translate(-583 -387)">        <g id="Chart_1">            <mask id="mask0_outline_1" mask-type="alpha">                <g id="Mask_1">                    <use xlink:href="#path0_fill_1" transform="translate(583 387)" fill="#FFFFFF"/>                </g>            </mask>            <g id="Chart_1" mask="url(#mask0_outline_1)">                <g id="Rectangle_1">                    <use xlink:href="#path1_fill_1" transform="translate(549 311)" fill="url(#paint1_linear_1)"/>                </g>                <g id="Path 3 Copy_1">                    <use xlink:href="#path2_fill_1" transform="translate(532.789 512.85)" fill="#000000" fill-opacity="0.164572"/>                </g>                <g id="Path 3_1" filter="url(#filter0_d_1)">                    <use xlink:href="#path3_stroke_1" transform="translate(543.734 512.884)" fill="#333D48"/>                </g>            </g>        </g>        <g id="Mask_1">            <use xlink:href="#path4_stroke_1" transform="translate(599 402)" fill="#FFFFFF"/>        </g>    </g>    <defs>        <filter id="filter0_d_1" filterUnits="userSpaceOnUse" x="537" y="508" width="394" height="151" color-interpolation-filters="sRGB">            <feFlood flood-opacity="0" result="BackgroundImageFix"/>            <feColorMatrix in="SourceAlpha" type="matrix" values="0 0 0 0 0 0 0 0 0 0 0 0 0 0 0 0 0 0 255 0"/>            <feOffset dx="0" dy="2"/>            <feGaussianBlur stdDeviation="2"/>            <feColorMatrix type="matrix" values="0 0 0 0 0 0 0 0 0 0 0 0 0 0 0 0 0 0 0.415591 0"/>            <feBlend mode="normal" in2="BackgroundImageFix" result="effect1_dropShadow"/>            <feBlend mode="normal" in="SourceGraphic" in2="effect1_dropShadow" result="shape"/>        </filter>        <linearGradient id="paint1_linear_1" x1="0" y1="0" x2="1" y2="0" gradientUnits="userSpaceOnUse" gradientTransform="matrix(364.888 -258.34 221.687 425.216 7.07198e-07 347.899)">            <stop offset="0" stop-color="#485563"/>            <stop offset="0.798355" stop-color="#2F3944"/>            <stop offset="1" stop-color="#29323C"/>        </linearGradient>        <path id="path0_fill_1" fill-rule="evenodd" d="M 0 7.99999C 0 3.58172 3.58172 0 8 0L 302 0C 306.418 0 310 3.58172 310 8L 310 274C 310 278.418 306.418 282 302 282L 7.99999 282C 3.58171 282 0 278.418 0 274L 0 7.99999Z"/>        <path id="path1_fill_1" fill-rule="evenodd" d="M 0 0L 375 0L 375 437L 0 437L 0 0Z"/>        <path id="path2_fill_1" fill-rule="evenodd" d="M 10.9453 137.393L 62.0781 121.303L 94.6992 68.3574L 119.777 84.709L 150.766 76.1738L 184.543 102.875L 225.492 42.709L 275.094 51.873L 335.105 8.77148L 391.211 0L 401.373 476.928L 0 487.705L 10.9453 137.393Z"/>        <path id="path3_stroke_1" d="M -0.750395 134.974C -2.06744 135.388 -2.79916 136.792 -2.38472 138.109C -1.97029 139.426 -0.566651 140.158 0.750395 139.743L -0.750395 134.974ZM 51.1328 121.269L 51.8832 123.653L 52.7723 123.374L 53.2613 122.58L 51.1328 121.269ZM 83.7539 68.3232L 85.1194 66.2291L 82.9709 64.8282L 81.6255 67.0118L 83.7539 68.3232ZM 108.832 84.6748L 107.467 86.769L 108.41 87.3841L 109.496 87.0851L 108.832 84.6748ZM 139.82 76.1396L 141.371 74.1784L 140.377 73.3932L 139.156 73.7294L 139.82 76.1396ZM 173.598 102.841L 172.047 104.802L 174.154 106.467L 175.664 104.247L 173.598 102.841ZM 214.547 42.6748L 215.001 40.2164L 213.398 39.9202L 212.48 41.2682L 214.547 42.6748ZM 264.148 51.8389L 263.694 54.2973L 264.742 54.4908L 265.607 53.8694L 264.148 51.8389ZM 324.16 8.7373L 323.775 6.26708L 323.186 6.35885L 322.702 6.70676L 324.16 8.7373ZM 380.65 2.47023C 382.015 2.25777 382.948 0.97958 382.736 -0.384688C 382.523 -1.74896 381.245 -2.68268 379.881 -2.47023L 380.65 2.47023ZM 0.750395 139.743L 51.8832 123.653L 50.3824 118.884L -0.750395 134.974L 0.750395 139.743ZM 53.2613 122.58L 85.8823 69.6346L 81.6255 67.0118L 49.0044 119.957L 53.2613 122.58ZM 82.3885 70.4174L 107.467 86.769L 110.197 82.5806L 85.1194 66.2291L 82.3885 70.4174ZM 109.496 87.0851L 140.484 78.5499L 139.156 73.7294L 108.168 82.2646L 109.496 87.0851ZM 138.27 78.1009L 172.047 104.802L 175.148 100.88L 141.371 74.1784L 138.27 78.1009ZM 175.664 104.247L 216.614 44.0814L 212.48 41.2682L 171.531 101.434L 175.664 104.247ZM 214.093 45.1332L 263.694 54.2973L 264.603 49.3805L 215.001 40.2164L 214.093 45.1332ZM 265.607 53.8694L 325.619 10.7679L 322.702 6.70676L 262.69 49.8083L 265.607 53.8694ZM 324.545 11.2075L 380.65 2.47023L 379.881 -2.47023L 323.775 6.26708L 324.545 11.2075Z"/>        <path id="path4_stroke_1" d="M 8 1.5L 269 1.5L 269 -1.5L 8 -1.5L 8 1.5ZM 275.5 8L 275.5 244L 278.5 244L 278.5 8L 275.5 8ZM 269 250.5L 8.00001 250.5L 8.00001 253.5L 269 253.5L 269 250.5ZM 1.5 244L 1.5 8L -1.5 8L -1.5 244L 1.5 244ZM 8.00001 250.5C 4.41016 250.5 1.5 247.59 1.5 244L -1.5 244C -1.5 249.247 2.7533 253.5 8.00001 253.5L 8.00001 250.5ZM 275.5 244C 275.5 247.59 272.59 250.5 269 250.5L 269 253.5C 274.247 253.5 278.5 249.247 278.5 244L 275.5 244ZM 269 1.5C 272.59 1.5 275.5 4.41015 275.5 8L 278.5 8C 278.5 2.75329 274.247 -1.5 269 -1.5L 269 1.5ZM 8 -1.5C 2.7533 -1.5 -1.5 2.75329 -1.5 8L 1.5 8C 1.5 4.41015 4.41015 1.5 8 1.5L 8 -1.5Z"/>    </defs></svg></svg>

            <svg y="50" x="47" width="220" height="114" viewBox="0 0 220 114">
            <title>Page 1</title>
            <desc>Created using Figma</desc>
            <g id="Canvas" transform="translate(-630 31)">
                <g id="RATING">
                    <use xlink:href="#path0_fill" transform="translate(623 -49)" fill="#FFFFFF"/>
                </g>
                <g id="RATING">
                    <use xlink:href="#path1_fill" transform="translate(702 33)" fill="#FFFFFF"/>
                </g>
            </g>
            <defs>
                <path id="path0_fill" d="M 35.8947 62.735L 35.8947 69L 7.12469 69L 7.12469 18.74L 14.5797 18.74L 14.5797 62.735L 35.8947 62.735ZM 50.6401 69L 43.1501 69L 43.1501 18.74L 50.6401 18.74L 50.6401 69ZM 89.0477 26.93C 88.8143 27.3267 88.5693 27.6183 88.3127 27.805C 88.056 27.9917 87.7293 28.085 87.3327 28.085C 86.9127 28.085 86.4343 27.8983 85.8977 27.525C 85.361 27.1283 84.6843 26.6967 83.8677 26.23C 83.0743 25.74 82.1177 25.3083 80.9977 24.935C 79.8777 24.5383 78.536 24.34 76.9727 24.34C 75.5027 24.34 74.2077 24.5383 73.0877 24.935C 71.991 25.3083 71.0693 25.8333 70.3227 26.51C 69.576 27.1633 69.0043 27.945 68.6077 28.855C 68.2343 29.7417 68.0477 30.71 68.0477 31.76C 68.0477 33.1133 68.386 34.2333 69.0627 35.12C 69.7627 36.0067 70.6727 36.765 71.7927 37.395C 72.9127 38.025 74.1843 38.5733 75.6077 39.04C 77.031 39.5067 78.4893 39.9967 79.9827 40.51C 81.476 41 82.9343 41.5717 84.3577 42.225C 85.781 42.8783 87.0527 43.7067 88.1727 44.71C 89.2927 45.69 90.191 46.9033 90.8677 48.35C 91.5677 49.7733 91.9177 51.5233 91.9177 53.6C 91.9177 55.8167 91.5327 57.8933 90.7627 59.83C 90.016 61.7667 88.9193 63.4583 87.4727 64.905C 86.026 66.3517 84.241 67.495 82.1177 68.335C 80.0177 69.1517 77.626 69.56 74.9427 69.56C 73.3327 69.56 71.7693 69.3967 70.2527 69.07C 68.736 68.7667 67.301 68.335 65.9477 67.775C 64.5943 67.1917 63.3227 66.5033 62.1327 65.71C 60.966 64.8933 59.916 63.9833 58.9827 62.98L 61.1177 59.41C 61.3277 59.13 61.5727 58.8967 61.8527 58.71C 62.156 58.5233 62.4943 58.43 62.8677 58.43C 63.3577 58.43 63.9177 58.6867 64.5477 59.2C 65.201 59.7133 65.9943 60.285 66.9277 60.915C 67.8843 61.5217 69.016 62.0817 70.3227 62.595C 71.6527 63.1083 73.2627 63.365 75.1527 63.365C 76.6927 63.365 78.0693 63.1667 79.2827 62.77C 80.496 62.35 81.511 61.7667 82.3277 61.02C 83.1677 60.25 83.8093 59.3283 84.2527 58.255C 84.696 57.1817 84.9177 55.9917 84.9177 54.685C 84.9177 53.215 84.5793 52.0133 83.9027 51.08C 83.226 50.1467 82.3277 49.365 81.2077 48.735C 80.0877 48.105 78.816 47.5683 77.3927 47.125C 75.9693 46.6817 74.511 46.2267 73.0177 45.76C 71.5243 45.27 70.066 44.71 68.6427 44.08C 67.2193 43.45 65.9477 42.6333 64.8277 41.63C 63.7077 40.6033 62.8093 39.3317 62.1327 37.815C 61.456 36.275 61.1177 34.385 61.1177 32.145C 61.1177 30.3483 61.4677 28.61 62.1677 26.93C 62.8677 25.25 63.8827 23.7683 65.2127 22.485C 66.566 21.1783 68.2227 20.14 70.1827 19.37C 72.1427 18.5767 74.3827 18.18 76.9027 18.18C 79.726 18.18 82.316 18.635 84.6727 19.545C 87.0527 20.4317 89.1177 21.715 90.8677 23.395L 89.0477 26.93ZM 135.384 24.97L 119.424 24.97L 119.424 69L 112.004 69L 112.004 24.97L 95.9738 24.97L 95.9738 18.74L 135.384 18.74L 135.384 24.97ZM 173.798 62.945L 173.763 69L 142.613 69L 142.613 18.74L 173.763 18.74L 173.763 24.795L 150.103 24.795L 150.103 40.72L 169.143 40.72L 169.143 46.565L 150.103 46.565L 150.103 62.945L 173.798 62.945ZM 226.868 43.87C 226.868 47.6267 226.262 51.045 225.048 54.125C 223.858 57.205 222.167 59.8533 219.973 62.07C 217.78 64.2633 215.155 65.9667 212.098 67.18C 209.042 68.3933 205.647 69 201.913 69L 183.013 69L 183.013 18.74L 201.913 18.74C 205.647 18.74 209.042 19.3467 212.098 20.56C 215.155 21.7733 217.78 23.4883 219.973 25.705C 222.167 27.8983 223.858 30.5467 225.048 33.65C 226.262 36.73 226.868 40.1367 226.868 43.87ZM 219.238 43.87C 219.238 40.8833 218.83 38.2117 218.013 35.855C 217.197 33.475 216.03 31.4683 214.513 29.835C 213.02 28.1783 211.2 26.9183 209.053 26.055C 206.93 25.1917 204.55 24.76 201.913 24.76L 190.503 24.76L 190.503 62.98L 201.913 62.98C 204.55 62.98 206.93 62.5483 209.053 61.685C 211.2 60.8217 213.02 59.5733 214.513 57.94C 216.03 56.2833 217.197 54.2767 218.013 51.92C 218.83 49.5633 219.238 46.88 219.238 43.87Z"/>
                <path id="path1_fill" d="M 22.5273 23.2C 24.394 23.2 26.0773 23.5083 27.5773 24.125C 29.094 24.725 30.3773 25.6 31.4273 26.75C 32.494 27.8833 33.3107 29.2583 33.8773 30.875C 34.444 32.475 34.7273 34.275 34.7273 36.275C 34.7273 38.275 34.444 40.0833 33.8773 41.7C 33.3107 43.3167 32.494 44.6917 31.4273 45.825C 30.3773 46.9583 29.094 47.8333 27.5773 48.45C 26.0773 49.05 24.394 49.35 22.5273 49.35C 20.644 49.35 18.944 49.05 17.4273 48.45C 15.9273 47.8333 14.644 46.9583 13.5773 45.825C 12.5107 44.6917 11.6857 43.3167 11.1023 41.7C 10.5357 40.0833 10.2523 38.275 10.2523 36.275C 10.2523 34.275 10.5357 32.475 11.1023 30.875C 11.6857 29.2583 12.5107 27.8833 13.5773 26.75C 14.644 25.6 15.9273 24.725 17.4273 24.125C 18.944 23.5083 20.644 23.2 22.5273 23.2ZM 22.5273 45.55C 24.9273 45.55 26.719 44.7417 27.9023 43.125C 29.0857 41.5083 29.6773 39.2333 29.6773 36.3C 29.6773 33.3667 29.0857 31.0917 27.9023 29.475C 26.719 27.8417 24.9273 27.025 22.5273 27.025C 20.094 27.025 18.2773 27.8417 17.0773 29.475C 15.894 31.0917 15.3023 33.3667 15.3023 36.3C 15.3023 39.2333 15.894 41.5083 17.0773 43.125C 18.2773 44.7417 20.094 45.55 22.5273 45.55ZM 44.7441 27.125C 45.2941 26.5417 45.8691 26.0083 46.4691 25.525C 47.0691 25.0417 47.7025 24.6333 48.3691 24.3C 49.0525 23.95 49.7775 23.6833 50.5441 23.5C 51.3275 23.3 52.1608 23.2 53.0441 23.2C 54.4441 23.2 55.6691 23.4333 56.7191 23.9C 57.7858 24.3667 58.6775 25.025 59.3941 25.875C 60.1108 26.7083 60.6525 27.7167 61.0191 28.9C 61.3858 30.0833 61.5691 31.3917 61.5691 32.825L 61.5691 49L 56.6691 49L 56.6691 32.825C 56.6691 31.0083 56.2525 29.6 55.4191 28.6C 54.5858 27.5833 53.3108 27.075 51.5941 27.075C 50.3441 27.075 49.1691 27.375 48.0691 27.975C 46.9858 28.5583 45.9775 29.3583 45.0441 30.375L 45.0441 49L 40.1691 49L 40.1691 23.6L 43.0941 23.6C 43.7775 23.6 44.2025 23.925 44.3691 24.575L 44.7441 27.125Z"/>
            </defs>
        </svg>
        <svg height="90" y="180" width="310" viewBox="0 0 220 114" ><svg width="220" height="114" viewBox="0 0 210 114" version="1.1" xmlns="http://www.w3.org/2000/svg" xmlns:xlink="http://www.w3.org/1999/xlink"><g id="Canvas_2" transform="translate(-622 -335)"><g id="ICOHOLDER_LOGO2_2"><g id="Group_2"><g id="Shape_2"><use xlink:href="#path0_fill_2" transform="translate(697.661 398.574)" fill="#FFFFFF"/></g><g id="Shape_2"><use xlink:href="#path1_fill_2" transform="translate(714.097 355.707)" fill="#FFFFFF"/></g><g id="Shape_2"><use xlink:href="#path2_fill_2" transform="translate(688.177 335.088)" fill="#FFFFFF"/></g><g id="Shape_2"><use xlink:href="#path3_fill_2" transform="translate(714.126 398.545)" fill="#FFFFFF"/></g><g id="Shape_2"><use xlink:href="#path4_fill_2" transform="translate(688.147 398.545)" fill="#FFFFFF"/></g><g id="Shape_2"><use xlink:href="#path5_fill_2" transform="translate(697.691 345.409)" fill="#FFFFFF"/></g></g><g id="Group_2"><g id="Shape_2"><use xlink:href="#path6_fill_2" transform="translate(622.234 367.357)" fill="#FFFFFF"/></g><g id="Shape_2"><use xlink:href="#path7_fill_2" transform="translate(631.405 367.03)" fill="#FFFFFF"/></g><g id="Shape_2"><use xlink:href="#path8_fill_2" transform="translate(656.982 367.089)" fill="#FFFFFF"/></g><g id="Shape_2"><use xlink:href="#path9_fill_2" transform="translate(688.156 367.357)" fill="#FFFFFF"/></g><g id="Shape_2"><use xlink:href="#path10_fill_2" transform="translate(714.788 367.089)" fill="#FFFFFF"/></g><g id="Shape_2"><use xlink:href="#path11_fill_2" transform="translate(745.962 367.357)" fill="#FFFFFF"/></g><g id="Shape_2"><use xlink:href="#path12_fill_2" transform="translate(765.094 367.357)" fill="#FFFFFF"/></g><g id="Shape_2"><use xlink:href="#path13_fill_2" transform="translate(793.103 367.328)" fill="#FFFFFF"/></g><g id="Shape_2"><use xlink:href="#path14_fill_2" transform="translate(815.077 367.387)" fill="#FFFFFF"/></g></g></g></g><defs><path id="path0_fill_2" d="M 1.73782 1.79872L 28.4825 17.25C 29.1895 17.6628 29.9847 17.8692 30.78 17.8692C 31.5753 17.8692 32.3705 17.6628 33.0775 17.25L 59.8222 1.79872C 60.5585 1.35641 61.1771 0.737179 61.56 0L 56.4644 0L 31.4575 14.4487C 31.0451 14.6846 30.5149 14.6846 30.1025 14.4487L 5.09564 0L 0 0C 0.382909 0.737179 1.00145 1.35641 1.73782 1.79872Z"/><path id="path1_fill_2" d="M 11.9585 0.641346L 0 7.57083L 6.48 7.57083L 13.5785 3.47212C 14.0498 3.20673 14.6389 3.20673 15.1102 3.47212L 22.2087 7.57083L 28.6887 7.57083L 16.7302 0.641346C 15.2869 -0.213782 13.4313 -0.213782 11.9585 0.641346Z"/><path id="path2_fill_2" d="M 3.24 28.1897L 3.24 25.241C 3.24 24.7397 3.50509 24.2679 3.94691 24.0321L 39.5869 3.42051C 40.0287 3.18462 40.5589 3.18462 41.0007 3.42051L 76.6407 24.0321C 77.0825 24.2679 77.3476 24.7397 77.3476 25.241L 77.3476 28.1897L 80.5876 28.1897L 80.5876 25.241C 80.5876 23.5897 79.704 22.0564 78.2607 21.2308L 42.6207 0.619231C 41.1775 -0.20641 39.4102 -0.20641 37.9669 0.619231L 2.32691 21.2308C 0.883636 22.0564 0 23.5897 0 25.2705L 0 28.2192L 3.24 28.2192L 3.24 28.1897Z"/><path id="path3_fill_2" d="M 14.3149 7.57821C 15.1396 7.57821 15.9644 7.37179 16.7007 6.92949L 28.6593 0L 22.1793 0L 15.1102 4.12821C 14.6389 4.39359 14.0498 4.39359 13.5785 4.12821L 6.48 0.0294872L 0 0.0294872L 11.9585 6.95897C 12.6655 7.37179 13.4902 7.57821 14.3149 7.57821Z"/><path id="path4_fill_2" d="M 77.3476 0.0294872L 77.3476 2.97821C 77.3476 3.47949 77.0825 3.95128 76.6407 4.18718L 41.0007 24.7987C 40.5589 25.0346 40.0287 25.0346 39.5869 24.7987L 3.94691 4.18718C 3.50509 3.95128 3.24 3.47949 3.24 2.97821L 3.24 0.0294872L 0 0.0294872L 0 2.97821C 0 4.62949 0.883636 6.16282 2.32691 6.98846L 37.9669 27.6C 38.6738 28.0128 39.4985 28.2192 40.2938 28.2192C 41.0891 28.2192 41.9138 28.0128 42.6207 27.6L 78.2607 6.98846C 79.704 6.16282 80.5876 4.62949 80.5876 2.94872L 80.5876 0L 77.3476 0L 77.3476 0.0294872Z"/><path id="path5_fill_2" d="M 59.8222 16.0705L 33.0775 0.619231C 31.6636 -0.20641 29.8964 -0.20641 28.4825 0.619231L 1.73782 16.0705C 1.00145 16.5128 0.382909 17.1321 0 17.8692L 5.09564 17.8692L 30.1025 3.42051C 30.5149 3.18462 31.0451 3.18462 31.4575 3.42051L 56.4644 17.8692L 61.56 17.8692C 61.1476 17.1321 60.5585 16.4833 59.8222 16.0705Z"/><path id="path6_fill_2" d="M 3.60371 27.1064L 0 27.1064L 0 0L 3.60371 0L 3.60371 27.1064Z"/><path id="path7_fill_2" d="M 20.3624 21.834C 20.5675 21.834 20.7433 21.9234 20.8898 22.0723L 22.2961 23.6511C 21.2121 24.9319 19.8937 25.9447 18.3116 26.6596C 16.7294 27.3745 14.8836 27.7319 12.6862 27.7319C 10.7525 27.7319 9.02393 27.4043 7.47111 26.7191C 5.91829 26.034 4.57056 25.1106 3.48652 23.8894C 2.40248 22.6681 1.52352 21.2085 0.908253 19.5106C 0.292985 17.8128 0 15.9362 0 13.8809C 0 11.8255 0.322283 9.97872 0.96685 8.25106C 1.61142 6.55319 2.51967 5.09362 3.72091 3.87234C 4.89285 2.65106 6.29917 1.69787 7.93989 1.01277C 9.58061 0.32766 11.3971 0 13.3894 0C 15.3524 0 17.0517 0.297872 18.458 0.923404C 19.8644 1.54894 21.1535 2.38298 22.2376 3.42553L 21.0656 5.1234C 20.9777 5.24255 20.8898 5.3617 20.7726 5.42128C 20.6554 5.51064 20.5089 5.54043 20.2746 5.54043C 20.0988 5.54043 19.9523 5.48085 19.7765 5.3617C 19.6007 5.24255 19.3956 5.09362 19.1319 4.91489C 18.8975 4.73617 18.6045 4.55745 18.253 4.34894C 17.9014 4.14043 17.5205 3.9617 17.0517 3.78298C 16.5829 3.60426 16.0556 3.45532 15.4403 3.33617C 14.825 3.21702 14.1219 3.15745 13.3308 3.15745C 11.8952 3.15745 10.6061 3.39574 9.40481 3.90213C 8.23287 4.40851 7.20743 5.1234 6.35777 6.01702C 5.50812 6.94043 4.83425 8.07234 4.36547 9.38298C 3.8967 10.6936 3.66231 12.183 3.66231 13.8213C 3.66231 15.5191 3.8967 17.0085 4.36547 18.3489C 4.83425 19.6894 5.50812 20.7915 6.32847 21.7149C 7.14883 22.6383 8.11568 23.3234 9.25832 23.8C 10.401 24.2766 11.6022 24.5149 12.8913 24.5149C 13.6824 24.5149 14.3856 24.4553 15.0301 24.366C 15.6747 24.2766 16.2607 24.1277 16.788 23.9191C 17.3154 23.7106 17.8428 23.4723 18.2823 23.1447C 18.751 22.8468 19.2198 22.4596 19.6886 22.0426C 19.9816 21.9234 20.1867 21.834 20.3624 21.834Z"/><path id="path8_fill_2" fill-rule="evenodd" d="M 25.3139 19.451C 25.9291 17.7532 26.2515 15.8766 26.2515 13.8511C 26.2515 11.8255 25.9291 9.94894 25.3139 8.25107C 24.6986 6.55319 23.7903 5.09363 22.6477 3.87234C 21.5051 2.65106 20.0988 1.69788 18.4874 1.01276C 16.8759 0.327667 15.0887 0 13.1257 0C 11.1627 0 9.37549 0.327667 7.7641 1.01276C 6.15271 1.69788 4.74634 2.65106 3.6037 3.87234C 2.46106 5.09363 1.58209 6.55319 0.937561 8.25107C 0.322266 9.94894 0 11.8255 0 13.8511C 0 15.9064 0.292969 17.7532 0.937561 19.451C 1.5528 21.1489 2.46106 22.6085 3.6037 23.8298C 4.77563 25.0808 6.15271 26.0042 7.7641 26.6894C 9.37549 27.3745 11.1627 27.7021 13.1257 27.7021C 15.0887 27.7021 16.8759 27.3745 18.4874 26.6894C 20.0988 26.0042 21.5051 25.0511 22.6477 23.8298C 23.7903 22.6085 24.6693 21.1489 25.3139 19.451ZM 21.8859 9.38297C 22.3254 10.6936 22.5598 12.183 22.5598 13.851C 22.5598 15.5191 22.3254 17.0085 21.8859 18.3192C 21.4465 19.6298 20.8019 20.7319 19.9816 21.6553C 19.1612 22.5489 18.165 23.2638 16.9931 23.7404C 15.8505 24.217 14.532 24.4553 13.0964 24.4553C 11.6608 24.4553 10.3716 24.217 9.19971 23.7404C 8.02777 23.2638 7.03162 22.5787 6.21124 21.6553C 5.39093 20.7617 4.74634 19.6298 4.30688 18.3192C 3.86737 17.0085 3.633 15.5191 3.633 13.851C 3.633 12.2128 3.86737 10.6936 4.30688 9.38297C 4.74634 8.04254 5.39093 6.94043 6.21124 6.01703C 7.03162 5.0936 8.02777 4.40851 9.19971 3.90213C 10.3716 3.39575 11.6608 3.15744 13.0964 3.15744C 14.532 3.15744 15.8212 3.39575 16.9931 3.90213C 18.165 4.40851 19.1612 5.0936 19.9816 6.01703C 20.8019 6.94043 21.4465 8.07233 21.8859 9.38297Z"/><path id="path9_fill_2" d="M 21.6223 27.1064L 17.9893 27.1064L 17.9893 14.7745L 3.63301 14.7745L 3.63301 27.1064L 0 27.1064L 0 0L 3.63301 0L 3.63301 12.0936L 17.9893 12.0936L 17.9893 0L 21.6223 0L 21.6223 27.1064Z"/><path id="path10_fill_2" fill-rule="evenodd" d="M 25.3139 19.451C 25.9291 17.7532 26.2515 15.8766 26.2515 13.8511C 26.2515 11.8255 25.9291 9.94894 25.3139 8.25107C 24.6986 6.55319 23.7903 5.09363 22.6477 3.87234C 21.5051 2.65106 20.0988 1.69788 18.4874 1.01276C 16.8759 0.327667 15.0887 0 13.1257 0C 11.1627 0 9.37549 0.327667 7.7641 1.01276C 6.15271 1.69788 4.74634 2.65106 3.6037 3.87234C 2.46106 5.09363 1.58209 6.55319 0.937561 8.25107C 0.322266 9.94894 0 11.8255 0 13.8511C 0 15.9064 0.292969 17.7532 0.937561 19.451C 1.5528 21.1489 2.46106 22.6085 3.6037 23.8298C 4.77563 25.0808 6.15271 26.0042 7.7641 26.6894C 9.37549 27.3745 11.1627 27.7021 13.1257 27.7021C 15.0887 27.7021 16.8759 27.3745 18.4874 26.6894C 20.0988 26.0042 21.5051 25.0511 22.6477 23.8298C 23.7903 22.6085 24.6693 21.1489 25.3139 19.451ZM 21.8566 9.38297C 22.2961 10.6936 22.5305 12.183 22.5305 13.851C 22.5305 15.5191 22.3254 17.0085 21.8566 18.3192C 21.4172 19.6298 20.7726 20.7319 19.9523 21.6553C 19.1319 22.5489 18.1064 23.2638 16.9638 23.7404C 15.8212 24.217 14.5027 24.4553 13.0671 24.4553C 11.6315 24.4553 10.3423 24.217 9.17041 23.7404C 7.99847 23.2638 7.00232 22.5787 6.18195 21.6553C 5.36163 20.7617 4.71704 19.6298 4.27759 18.3192C 3.83807 17.0085 3.6037 15.5191 3.6037 13.851C 3.6037 12.2128 3.83807 10.6936 4.27759 9.38297C 4.71704 8.04254 5.36163 6.94043 6.18195 6.01703C 7.00232 5.0936 7.99847 4.40851 9.17041 3.90213C 10.3423 3.39575 11.6315 3.15744 13.0671 3.15744C 14.5027 3.15744 15.7919 3.39575 16.9638 3.90213C 18.1357 4.40851 19.1319 5.0936 19.9523 6.01703C 20.7726 6.94043 21.4172 8.07233 21.8566 9.38297Z"/><path id="path11_fill_2" d="M 3.60371 24.0383L 15.1473 24.0383L 15.1473 27.1064L 0 27.1064L 0 0L 3.60371 0L 3.60371 24.0383Z"/><path id="path12_fill_2" fill-rule="evenodd" d="M 22.1497 19.1234C 22.765 17.4553 23.0872 15.6085 23.0872 13.583C 23.0872 11.5574 22.765 9.71063 22.1497 8.04254C 21.5344 6.37448 20.6555 4.94467 19.4835 3.7532C 18.3116 2.56171 16.9345 1.63831 15.3231 0.982971C 13.7117 0.327667 11.9245 0 9.96149 0L 0 0L 0 27.1064L 9.96149 27.1064C 11.9245 27.1064 13.7117 26.7787 15.3231 26.1234C 16.9345 25.4979 18.3409 24.5745 19.4835 23.383C 20.6262 22.2213 21.5051 20.7915 22.1497 19.1234ZM 18.7217 9.1149C 19.1612 10.4255 19.3956 11.9149 19.3956 13.583C 19.3956 15.2511 19.1612 16.7106 18.7217 18.0213C 18.2822 19.3319 17.6377 20.4341 16.8173 21.3277C 15.9969 22.2511 15.0008 22.9362 13.8289 23.4128C 12.6569 23.8894 11.3678 24.1277 9.93219 24.1277L 3.6037 24.1277L 3.6037 2.97873L 9.93219 2.97873C 11.3678 2.97873 12.6569 3.21704 13.8289 3.69363C 15.0008 4.17023 15.9969 4.8851 16.8173 5.77872C 17.6377 6.70215 18.2822 7.80426 18.7217 9.1149Z"/><path id="path13_fill_2" d="M 16.4072 0.0595745L 16.4072 3.0383L 3.60371 3.0383L 3.60371 12.034L 13.9754 12.034L 13.9754 14.8936L 3.60371 14.8936L 3.60371 24.1277L 16.4072 24.1277L 16.4072 27.1064L 0 27.1064L 0 0L 16.4072 0L 16.4072 0.0595745Z"/><path id="path14_fill_2" fill-rule="evenodd" d="M 3.5744 27.1064L 3.5744 15.7872L 3.5744 15.7574L 6.38708 15.7574C 6.88513 15.7574 7.26605 15.8468 7.50043 15.966C 7.7348 16.1149 7.96918 16.3234 8.17426 16.6213L 15.0887 26.3021C 15.411 26.8085 15.9091 27.0766 16.5536 27.0766L 19.7472 27.0766L 11.9831 16.3234C 11.6315 15.817 11.2213 15.4298 10.7819 15.1617C 11.8073 14.9234 12.7155 14.5659 13.5359 14.0894C 14.327 13.6128 15.0302 13.0468 15.5868 12.3915C 16.1435 11.7362 16.5829 10.9915 16.8759 10.1574C 17.1689 9.32339 17.3154 8.42978 17.3154 7.47659C 17.3154 6.3447 17.1103 5.30212 16.7294 4.37872C 16.3486 3.45532 15.7333 2.65106 14.9422 1.99576C 14.1512 1.34042 13.1257 0.863831 11.8952 0.506378C 10.6647 0.178711 9.229 0 7.52972 0L 0 0L 0 27.1064L 3.5744 27.1064ZM 7.35388 13.1064L 3.5744 13.1064L 3.5744 2.85959L 7.52972 2.85959C 9.60986 2.85959 11.1627 3.24683 12.2175 4.08087C 13.2722 4.91492 13.7996 6.13617 13.7996 7.74469C 13.7996 8.54895 13.6531 9.26385 13.3894 9.91916C 13.0964 10.5745 12.6862 11.1404 12.1589 11.617C 11.6022 12.0936 10.9283 12.4511 10.1373 12.7192C 9.34619 12.9872 8.40863 13.1064 7.35388 13.1064Z"/></defs></svg></svg>

    </svg>
