<?xml version="1.0" encoding="utf-8"?>
<!-- Generator: Adobe Illustrator 22.0.1, SVG Export Plug-In . SVG Version: 6.00 Build 0)  -->
<svg version="1.1" id="Layer_1" xmlns="http://www.w3.org/2000/svg" xmlns:xlink="http://www.w3.org/1999/xlink" x="0px" y="0px"
	 width="183.2px" height="50.6px" viewBox="0 0 183.2 50.6" style="enable-background:new 0 0 183.2 50.6;" xml:space="preserve">
<style type="text/css">
	.st0{fill:#FFFFFF;}
	.st1{fill:none;stroke:#FFFFFF;stroke-width:0.3081;stroke-miterlimit:10;}
</style>
<g>
	<g>
		<path class="st0" d="M70,37c-0.5-0.9-1-1.8-1.6-2.7c-2.3-3.9-4.5-7.8-6.8-11.7c-1.6-2.8-3.2-5.6-4.8-8.4c-1.2-2.1-2.4-4.1-3.6-6.2
			c-1.2-2-2.3-4-3.5-6c-0.3-0.6-0.6-1.1-1-1.7c-4.6,8-9.2,15.9-13.8,23.8c-4.6-8-9.2-15.9-13.7-23.8c-0.1,0.1-0.1,0.2-0.2,0.3
			c-0.7,1.1-1.3,2.3-2,3.4c-1.3,2.3-2.7,4.6-4,6.9c-1.4,2.5-2.8,5-4.3,7.4c-1.6,2.7-3.1,5.4-4.7,8.1c-1.4,2.4-2.8,4.9-4.2,7.3
			c-0.6,1-1.2,2-1.8,3.1c-0.1,0.2-0.2,0.6-0.1,0.8c0.9,1.7,1.9,3.4,2.9,5c0.9,1.6,1.9,3.2,2.8,4.8c0.5,0.9,1.1,1.9,1.7,2.9
			c4.6-8,9.2-15.9,13.8-23.8c4.6,8,9.2,15.9,13.8,23.8c4.6-8,9.2-15.9,13.8-23.8c4.6,8,9.2,15.9,13.8,23.8c0.1-0.2,0.1-0.2,0.2-0.3
			c1.1-1.9,2.2-3.8,3.3-5.7c1.3-2.3,2.6-4.5,3.9-6.8C70.1,37.3,70.1,37.1,70,37 M62.6,26.5c2,3.4,3.9,6.7,5.9,10.1H56.8
			C58.7,33.2,60.6,29.9,62.6,26.5 M48.9,2.6c2,3.4,3.9,6.8,5.9,10.2H43C44.9,9.4,46.9,6.1,48.9,2.6 M40.9,36.6H29.2
			c2-3.4,3.9-6.7,5.9-10.1C37.1,29.9,39,33.2,40.9,36.6 M34.1,24.7H22.3c1.9-3.4,3.9-6.7,5.9-10.2C30.2,18,32.1,21.3,34.1,24.7
			 M21.3,2.6c2,3.4,3.9,6.8,5.9,10.2H15.5C17.4,9.4,19.4,6,21.3,2.6 M7.6,26.5c2,3.4,3.9,6.8,5.8,10.1H1.7
			C3.7,33.2,5.6,29.9,7.6,26.5 M7.6,48c-2-3.4-3.9-6.8-5.9-10.2h11.7C11.5,41.2,9.5,44.6,7.6,48 M14.4,36.1c-2-3.4-3.9-6.8-5.9-10.2
			h11.7C18.4,29.3,16.4,32.7,14.4,36.1 M8.6,24.7c2-3.4,3.9-6.7,5.9-10.2c2,3.4,3.9,6.8,5.9,10.2H8.6z M21.3,24.1
			c-2-3.4-3.9-6.7-5.8-10.1h11.7C25.2,17.4,23.3,20.7,21.3,24.1 M22.3,25.9h11.7c-2,3.4-3.9,6.7-5.9,10.2
			C26.2,32.6,24.3,29.3,22.3,25.9 M35.1,48c-2-3.4-3.9-6.8-5.9-10.2h11.7C39,41.2,37.1,44.6,35.1,48 M42,36.1
			c-2-3.4-3.9-6.8-5.9-10.2h11.7C45.9,29.3,43.9,32.6,42,36.1 M36.1,24.7C38,21.3,40,18,42,14.5c2,3.4,3.9,6.8,5.9,10.2H36.1z
			 M43,14h11.7c-1.9,3.4-3.9,6.7-5.8,10.1C46.9,20.7,45,17.4,43,14 M55.7,14.5c2,3.4,3.9,6.8,5.9,10.2H49.8
			C51.8,21.3,53.8,18,55.7,14.5 M49.9,25.9h11.8c-2,3.4-3.9,6.7-5.9,10.2C53.8,32.6,51.8,29.3,49.9,25.9 M62.6,48
			c-2-3.4-3.9-6.8-5.9-10.1h11.7C66.5,41.2,64.6,44.6,62.6,48"/>
		<path class="st1" d="M70,37c-0.5-0.9-1-1.8-1.6-2.7c-2.3-3.9-4.5-7.8-6.8-11.7c-1.6-2.8-3.2-5.6-4.8-8.4c-1.2-2.1-2.4-4.1-3.6-6.2
			c-1.2-2-2.3-4-3.5-6c-0.3-0.6-0.6-1.1-1-1.7c-4.6,8-9.2,15.9-13.8,23.8c-4.6-8-9.2-15.9-13.7-23.8c-0.1,0.1-0.1,0.2-0.2,0.3
			c-0.7,1.1-1.3,2.3-2,3.4c-1.3,2.3-2.7,4.6-4,6.9c-1.4,2.5-2.8,5-4.3,7.4c-1.6,2.7-3.1,5.4-4.7,8.1c-1.4,2.4-2.8,4.9-4.2,7.3
			c-0.6,1-1.2,2-1.8,3.1c-0.1,0.2-0.2,0.6-0.1,0.8c0.9,1.7,1.9,3.4,2.9,5c0.9,1.6,1.9,3.2,2.8,4.8c0.5,0.9,1.1,1.9,1.7,2.9
			c4.6-8,9.2-15.9,13.8-23.8c4.6,8,9.2,15.9,13.8,23.8c4.6-8,9.2-15.9,13.8-23.8c4.6,8,9.2,15.9,13.8,23.8c0.1-0.2,0.1-0.2,0.2-0.3
			c1.1-1.9,2.2-3.8,3.3-5.7c1.3-2.3,2.6-4.5,3.9-6.8C70.1,37.3,70.1,37.1,70,37z M62.6,26.5c2,3.4,3.9,6.7,5.9,10.1H56.8
			C58.7,33.2,60.6,29.9,62.6,26.5z M48.9,2.6c2,3.4,3.9,6.8,5.9,10.2H43C44.9,9.4,46.9,6.1,48.9,2.6z M40.9,36.6H29.2
			c2-3.4,3.9-6.7,5.9-10.1C37.1,29.9,39,33.2,40.9,36.6z M34.1,24.7H22.3c1.9-3.4,3.9-6.7,5.9-10.2C30.2,18,32.1,21.3,34.1,24.7z
			 M21.3,2.6c2,3.4,3.9,6.8,5.9,10.2H15.5C17.4,9.4,19.4,6,21.3,2.6z M7.6,26.5c2,3.4,3.9,6.8,5.8,10.1H1.7
			C3.7,33.2,5.6,29.9,7.6,26.5z M7.6,48c-2-3.4-3.9-6.8-5.9-10.2h11.7C11.5,41.2,9.5,44.6,7.6,48z M14.4,36.1
			c-2-3.4-3.9-6.8-5.9-10.2h11.7C18.4,29.3,16.4,32.7,14.4,36.1z M8.6,24.7c2-3.4,3.9-6.7,5.9-10.2c2,3.4,3.9,6.8,5.9,10.2H8.6z
			 M21.3,24.1c-2-3.4-3.9-6.7-5.8-10.1h11.7C25.2,17.4,23.3,20.7,21.3,24.1z M22.3,25.9h11.7c-2,3.4-3.9,6.7-5.9,10.2
			C26.2,32.6,24.3,29.3,22.3,25.9z M35.1,48c-2-3.4-3.9-6.8-5.9-10.2h11.7C39,41.2,37.1,44.6,35.1,48z M42,36.1
			c-2-3.4-3.9-6.8-5.9-10.2h11.7C45.9,29.3,43.9,32.6,42,36.1z M36.1,24.7C38,21.3,40,18,42,14.5c2,3.4,3.9,6.8,5.9,10.2H36.1z
			 M43,14h11.7c-1.9,3.4-3.9,6.7-5.8,10.1C46.9,20.7,45,17.4,43,14z M55.7,14.5c2,3.4,3.9,6.8,5.9,10.2H49.8
			C51.8,21.3,53.8,18,55.7,14.5z M49.9,25.9h11.8c-2,3.4-3.9,6.7-5.9,10.2C53.8,32.6,51.8,29.3,49.9,25.9z M62.6,48
			c-2-3.4-3.9-6.8-5.9-10.1h11.7C66.5,41.2,64.6,44.6,62.6,48z"/>
		<path class="st0" d="M87.1,9c-0.1,0.2-0.2,0.6-0.4,1.1c-0.1-0.5-0.3-0.8-0.4-1.1l-1.4-3.8h-2.8v9.2h2.6v-3.6l1.1,3.2h1.8l1.1-3.1
			v3.5h2.6V5.1h-2.8L87.1,9z"/>
		<path class="st0" d="M99.9,5.1h-2.5L94,14.4h2.8l0.6-1.9h2.5l0.6,1.9h2.8L99.9,5.1z M99.5,10.5h-1.6L98.3,9
			c0.1-0.3,0.2-0.7,0.3-1.1C98.8,8.2,98.9,8.6,99,9L99.5,10.5z"/>
		<polygon class="st0" points="112.5,12.1 108.6,12.1 108.6,5.1 106,5.1 106,14.4 112.5,14.4 		"/>
		<polygon class="st0" points="116.7,14.4 119.2,14.4 119.2,7.4 121.7,7.4 121.7,5.1 114.2,5.1 114.2,7.4 116.7,7.4 		"/>
		<path class="st0" d="M166.5,12.8c0.1-0.1,0.2-0.3,0.2-0.5c0.1-0.3,0.2-0.6,0.2-0.9l0-0.2l-1.4-0.2l0,0.2c0,0.1,0,0.3-0.1,0.4
			c-0.1-0.1-0.2-0.2-0.2-0.3c-0.2-0.2-0.4-0.4-0.4-0.5c-0.1-0.1-0.2-0.2-0.3-0.4c-0.1-0.1-0.2-0.3-0.2-0.3c0-0.1,0-0.1,0-0.1
			c0-0.1,0-0.2,0.3-0.2c0.2,0,0.5,0.1,0.6,0.4l0.1,0.1l1.2-0.5l-0.1-0.2c-0.1-0.3-0.4-0.6-0.7-0.9c-0.3-0.2-0.8-0.4-1.2-0.4
			c-0.5,0-1,0.1-1.3,0.4c-0.3,0.3-0.5,0.6-0.5,1.1c0,0.3,0.1,0.6,0.4,0.9c-0.7,0.5-1.1,1.1-1.1,1.8c0,0.5,0.2,1,0.6,1.3
			c0.4,0.4,0.9,0.5,1.6,0.5c0.5,0,1-0.1,1.4-0.4l0.2,0.3h1.9L166.5,12.8z M163.7,12.9c-0.1-0.1-0.2-0.2-0.2-0.4
			c0-0.2,0.1-0.5,0.3-0.7l0.9,1C164.3,13.1,163.9,13.1,163.7,12.9"/>
		<path class="st0" d="M88.6,25.5c0.1-0.1,0.2-0.3,0.3-0.4c0.2-0.4,0.3-0.8,0.3-1.2c0-0.8-0.3-1.5-0.9-2c-0.6-0.5-1.4-0.7-2.5-0.7
			h-3.8v9.2h4.3c1,0,1.8-0.3,2.3-0.8c0.6-0.5,0.9-1.3,0.9-2.1c0-0.6-0.2-1.1-0.5-1.5C88.9,25.8,88.8,25.6,88.6,25.5 M84.7,24.5v-1.1
			h1.1c0.8,0,0.8,0.3,0.8,0.5c0,0.3-0.1,0.4-0.2,0.4c-0.1,0.1-0.4,0.2-0.6,0.2H84.7z M86.9,27.5c0,0.2-0.1,0.4-0.2,0.5
			c-0.2,0.1-0.4,0.2-0.6,0.2h-1.4v-1.3h1.4c0.3,0,0.5,0.1,0.6,0.2C86.8,27.1,86.9,27.3,86.9,27.5"/>
		<polygon class="st0" points="99.4,28.1 95.5,28.1 95.5,21.2 92.9,21.2 92.9,30.4 99.4,30.4 		"/>
		<path class="st0" d="M109,29.2c0.8-0.9,1.2-2,1.2-3.5c0-1.4-0.4-2.6-1.2-3.5c-0.8-0.9-1.8-1.3-3.1-1.3s-2.3,0.5-3.1,1.3
			c-0.8,0.9-1.2,2-1.2,3.5c0,1.4,0.4,2.6,1.2,3.5c0.8,0.9,1.8,1.3,3.1,1.3C107.2,30.6,108.3,30.1,109,29.2 M107.1,27.7
			c-0.3,0.4-0.6,0.6-1.1,0.6c-0.5,0-0.9-0.2-1.1-0.6c-0.3-0.5-0.5-1.1-0.5-1.9c0-0.8,0.2-1.5,0.5-1.9c0.3-0.4,0.6-0.6,1.1-0.6
			s0.9,0.2,1.1,0.6c0.3,0.5,0.5,1.1,0.5,1.9C107.6,26.6,107.4,27.2,107.1,27.7"/>
		<path class="st0" d="M118.7,30.4c0.4-0.1,0.7-0.3,1-0.4c0.3-0.2,0.5-0.4,0.8-0.6c0.2-0.2,0.4-0.5,0.5-0.7c0.1-0.2,0.2-0.4,0.3-0.7
			l0.2-0.4l-2.4-0.7l-0.1,0.3c-0.1,0.3-0.3,0.6-0.6,0.8c-0.3,0.2-0.6,0.3-0.9,0.3c-0.5,0-0.9-0.2-1.2-0.6c-0.3-0.5-0.5-1.1-0.5-1.9
			c0-0.8,0.2-1.4,0.5-1.9c0.3-0.4,0.7-0.6,1.2-0.6c0.3,0,0.6,0.1,0.8,0.2c0.2,0.2,0.4,0.4,0.6,0.7l0.2,0.3l2.3-0.7l-0.2-0.4
			c-0.3-0.7-0.8-1.3-1.4-1.7c-0.6-0.5-1.4-0.7-2.3-0.7c-1.3,0-2.3,0.4-3.2,1.3c-0.8,0.9-1.2,2-1.2,3.5c0,1.5,0.4,2.7,1.2,3.5
			c0.8,0.9,1.9,1.3,3.1,1.3C117.9,30.6,118.3,30.5,118.7,30.4"/>
		<polygon class="st0" points="132.8,30.4 129.1,25.3 132.9,21.2 129.6,21.2 127.1,24 127.1,21.2 124.5,21.2 124.5,30.4 127.1,30.4 
			127.1,27.4 127.4,27.1 129.7,30.4 		"/>
		<path class="st0" d="M140,30.4c0.4-0.1,0.7-0.3,1-0.4c0.3-0.2,0.5-0.4,0.8-0.6c0.2-0.2,0.4-0.5,0.5-0.7c0.1-0.2,0.2-0.4,0.3-0.7
			l0.2-0.4l-2.4-0.7l-0.1,0.3c-0.1,0.3-0.3,0.6-0.6,0.8c-0.3,0.2-0.6,0.3-0.9,0.3c-0.5,0-0.9-0.2-1.2-0.6c-0.3-0.5-0.5-1.1-0.5-1.9
			c0-0.8,0.2-1.4,0.5-1.9c0.3-0.4,0.7-0.6,1.2-0.6c0.3,0,0.6,0.1,0.8,0.2c0.2,0.2,0.4,0.4,0.6,0.7l0.2,0.3l2.3-0.7l-0.2-0.4
			c-0.3-0.7-0.8-1.3-1.4-1.7c-0.6-0.5-1.4-0.7-2.3-0.7c-1.3,0-2.3,0.4-3.2,1.3c-0.8,0.9-1.2,2-1.2,3.5c0,1.5,0.4,2.7,1.2,3.5
			c0.8,0.9,1.9,1.3,3.1,1.3C139.2,30.6,139.7,30.5,140,30.4"/>
		<polygon class="st0" points="150.7,24.5 148.4,24.5 148.4,21.2 145.8,21.2 145.8,30.4 148.4,30.4 148.4,26.8 150.7,26.8 
			150.7,30.4 153.3,30.4 153.3,21.2 150.7,21.2 		"/>
		<path class="st0" d="M180.6,21.2v3.8c0,0.2,0,0.5,0,0.7l-2.5-4.5h-2.5v9.2h2.6v-3.7c0-0.2,0-0.4,0-0.6l2.5,4.4h2.4v-9.2
			L180.6,21.2L180.6,21.2z"/>
		<path class="st0" d="M85.4,39.3c0.6,0,1.1,0.3,1.5,0.8l0.2,0.2l2.2-0.7L89,39.2c-0.3-0.6-0.8-1.2-1.4-1.6C87,37.2,86.2,37,85.4,37
			c-1,0-1.9,0.3-2.5,0.7c-0.7,0.5-1.1,1.2-1.1,2.1c0,1,0.5,1.8,1.5,2.3c0.3,0.2,0.9,0.4,1.8,0.6c0.5,0.2,0.9,0.3,1.1,0.5
			c0.2,0.1,0.2,0.3,0.2,0.5c0,0.2-0.1,0.3-0.2,0.4c-0.3,0.3-1.1,0.3-1.7-0.1c-0.3-0.2-0.6-0.4-0.7-0.7l-0.2-0.3l-2.3,0.7l0.2,0.4
			c0.3,0.7,0.8,1.3,1.6,1.7c0.7,0.4,1.5,0.6,2.4,0.6c1,0,1.9-0.2,2.6-0.7c0.7-0.5,1.1-1.3,1.1-2.2c0-0.4-0.1-0.8-0.2-1.1
			c-0.2-0.3-0.4-0.6-0.7-0.8c-0.3-0.2-0.5-0.4-0.8-0.5c-0.3-0.1-0.6-0.3-0.9-0.4c-0.1,0-0.2-0.1-0.5-0.2c-0.2-0.1-0.4-0.1-0.5-0.1
			c-0.1,0-0.2-0.1-0.4-0.1c-0.2-0.1-0.3-0.1-0.3-0.1c-0.1-0.1-0.2-0.1-0.3-0.2c-0.1,0-0.1-0.1-0.1-0.1c0,0,0-0.1,0-0.2
			c0-0.1,0.1-0.2,0.2-0.3C84.8,39.3,85,39.3,85.4,39.3"/>
		<path class="st0" d="M97.1,42.8c0,1.3-0.6,1.5-1.2,1.5c-0.6,0-1.2-0.2-1.2-1.5v-5.6h-2.6v5.6c0,1.3,0.3,2.2,1,2.8
			c0.7,0.6,1.6,0.9,2.8,0.9c1.2,0,2.2-0.3,2.8-1c0.6-0.7,0.9-1.6,0.9-2.8v-5.6h-2.6C97.1,37.2,97.1,42.8,97.1,42.8z"/>
		<path class="st0" d="M108.4,41c-0.1,0.2-0.2,0.6-0.4,1.1c-0.2-0.5-0.3-0.8-0.4-1.1l-1.4-3.8h-2.8v9.2h2.6v-3.6l1.1,3.2h1.8
			l1.1-3.1v3.5h2.6v-9.2h-2.8L108.4,41z"/>
		<path class="st0" d="M121.4,41c-0.1,0.2-0.2,0.6-0.4,1.1c-0.1-0.5-0.3-0.8-0.4-1.1l-1.4-3.8h-2.8v9.2h2.6v-3.6l1.1,3.2h1.8
			l1.1-3.1v3.5h2.6v-9.2h-2.8L121.4,41z"/>
		<polygon class="st0" points="136.4,39.4 138.8,39.4 138.8,46.4 141.4,46.4 141.4,39.4 143.9,39.4 143.9,37.2 136.4,37.2 		"/>
		<path class="st0" d="M126.6,12.5h2.5l0.6,1.9h2.8l-3.4-9.2h-2.5l-3.4,9.2h2.8L126.6,12.5z M127.5,9c0.1-0.3,0.2-0.7,0.3-1.1
			c0.1,0.3,0.2,0.7,0.3,1.1l0.5,1.5h-1.6L127.5,9z"/>
		<path class="st0" d="M149,14.4l-3.4-9.2h-2.5l-3.4,9.2h2.8l0.6-1.9h2.5l0.6,1.9H149z M145.2,10.5h-1.6l0.5-1.5
			c0.1-0.3,0.2-0.7,0.3-1.1c0.1,0.3,0.2,0.7,0.3,1.1L145.2,10.5z"/>
		<path class="st0" d="M159.4,21.2l-3.4,9.2h2.8l0.6-1.9h2.5l0.6,1.9h2.8l-3.4-9.2H159.4z M161.4,26.5h-1.6l0.5-1.5
			c0.1-0.3,0.2-0.7,0.3-1.1c0.1,0.3,0.2,0.7,0.3,1.1L161.4,26.5z"/>
		<polygon class="st0" points="156.7,14.4 156.7,12.1 155.6,12.1 155.6,7.4 156.7,7.4 156.7,5.1 155.6,5.1 153,5.1 152,5.1 152,7.4 
			153,7.4 153,12.1 152,12.1 152,14.4 153,14.4 155.6,14.4 		"/>
		<polygon class="st0" points="169.2,21.2 168.1,21.2 168.1,23.4 169.2,23.4 169.2,28.1 168.1,28.1 168.1,30.4 169.2,30.4 
			171.8,30.4 172.8,30.4 172.8,28.1 171.8,28.1 171.8,23.4 172.8,23.4 172.8,21.2 171.8,21.2 		"/>
		<polygon class="st0" points="129.7,37.2 128.6,37.2 128.6,39.4 129.7,39.4 129.7,44.1 128.6,44.1 128.6,46.4 129.7,46.4 
			132.3,46.4 133.4,46.4 133.4,44.1 132.3,44.1 132.3,39.4 133.4,39.4 133.4,37.2 132.3,37.2 		"/>
	</g>
</g>
</svg>
