<?xml version="1.0" encoding="utf-8"?>
<!-- Generator: Adobe Illustrator 22.0.1, SVG Export Plug-In . SVG Version: 6.00 Build 0)  -->
<svg version="1.1" id="Layer_1" xmlns="http://www.w3.org/2000/svg" xmlns:xlink="http://www.w3.org/1999/xlink" x="0px" y="0px"
	 width="200px" height="100px" viewBox="0 0 200 100" style="enable-background:new 0 0 200 100;" xml:space="preserve">
<style type="text/css">
	.st0{fill:#FFFFFF;stroke:#FFFFFF;stroke-width:0.7234;stroke-miterlimit:10;}
	.st1{fill:#FFFFFF;}
</style>
<g>
	<path class="st0" d="M90.8,64.9c-0.4-0.8-0.9-1.6-1.3-2.3c-0.2-0.4-0.4-0.7-0.7-1.1c-1.8-3.2-3.6-6.3-5.5-9.5l-3.1-5.3
		c-2-3.5-4.1-7-6.1-10.5c-0.6-1.1-1.3-2.2-1.9-3.3c-0.9-1.5-1.8-3-2.6-4.6c-0.8-1.4-1.6-2.7-2.4-4.1c-0.7-1.2-1.3-2.3-2-3.5
		c-0.3-0.5-0.6-1-0.8-1.4l-0.6-1L46.6,48.4l-17.3-30l-0.2,0.3L29,18.8c-0.1,0.1-0.1,0.2-0.1,0.2c-0.3,0.6-0.7,1.2-1,1.7
		c-0.5,0.9-1,1.7-1.5,2.6c-0.7,1.1-1.3,2.3-2,3.4c-1,1.7-2,3.5-3,5.2c-0.9,1.6-1.8,3.1-2.7,4.7c-0.9,1.6-1.8,3.1-2.7,4.7
		c-1.2,2-2.3,4-3.5,6c-0.8,1.4-1.6,2.8-2.4,4.1C9,53.4,8,55.2,6.9,57c-0.7,1.2-1.4,2.5-2.2,3.7c-0.2,0.4-0.4,0.7-0.6,1.1
		c-0.5,0.9-1.1,1.8-1.6,2.8c-0.2,0.3-0.3,0.8-0.1,1.1c0.9,1.6,1.9,3.3,2.8,4.9c0.3,0.5,0.6,1,0.9,1.5l1.2,2.1c0.8,1.3,1.5,2.6,2.3,4
		c0.5,0.8,1,1.6,1.4,2.5l0.9,1.5l17.3-30l17.3,30.1l17.3-30.1l17.3,30l0.2-0.3c0-0.1,0.1-0.1,0.1-0.2c0.1-0.1,0.1-0.1,0.1-0.2
		c0.5-0.9,1-1.7,1.5-2.6c0.9-1.6,1.8-3.1,2.7-4.7c0.5-0.9,1-1.8,1.6-2.7c1.1-1.9,2.3-3.9,3.4-5.9C90.9,65.5,90.9,65.1,90.8,64.9z
		 M18.9,66.3l-7.1,12.2l-7-12.2H18.9z M4.8,64.3l7-12.2l7,12.2H4.8z M27.6,51.2l-7.1,12.2l-7.1-12.2H27.6z M45,51.2l-7.1,12.3
		l-7.1-12.3H45z M30.8,49.3l7.1-12.2L45,49.3H30.8z M22.2,34.3l7.1-12.2l7.1,12.2H22.2z M27.6,49.4H13.5l7.1-12.3L27.6,49.4z
		 M36.3,36.2l-7,12.2l-7-12.2H36.3z M79.7,49.4H65.5l7.1-12.3L79.7,49.4z M56.9,34.3L64,22.1l7,12.2H56.9z M53.6,66.3l-7.1,12.2
		l-7.1-12.2H53.6z M62.3,51.2l-7.1,12.3l-7.1-12.3H62.3z M48.2,49.4l7.1-12.3l7.1,12.3H48.2z M39.5,64.3l7-12.2l7,12.2H39.5z
		 M71,36.2l-7,12.2l-7-12.2H71z M88.3,66.3l-7.1,12.2l-7-12.2H88.3z M74.2,64.3l7-12.2l7,12.2H74.2z M79.7,51.2l-7.1,12.2l-7.1-12.2
		H79.7z"/>
	<g>
		<path class="st1" d="M102.8,27.1c-0.1,0.2-0.2,0.6-0.4,1.1c-0.1-0.5-0.3-0.8-0.4-1.1l-1.4-3.8h-2.8v9.2h2.6V29l1.1,3.2h1.8
			l1.1-3.1v3.5h2.6v-9.2h-2.8L102.8,27.1z"/>
		<path class="st1" d="M115.6,23.3h-2.5l-3.4,9.2h2.7l0.6-1.9h2.5l0.6,1.9h2.7L115.6,23.3z M115.1,28.6h-1.6l0.5-1.5
			c0.1-0.3,0.2-0.7,0.3-1.1c0.1,0.3,0.2,0.7,0.3,1.1L115.1,28.6z"/>
		<polygon class="st1" points="128.1,30.2 124.2,30.2 124.2,23.3 121.6,23.3 121.6,32.5 128.1,32.5 		"/>
		<polygon class="st1" points="132.2,32.5 134.8,32.5 134.8,25.6 137.2,25.6 137.2,23.3 129.8,23.3 129.8,25.6 132.2,25.6 		"/>
		<path class="st1" d="M183.8,30.9c0.1-0.1,0.2-0.3,0.2-0.5c0.1-0.3,0.2-0.6,0.2-0.9v-0.2l-1.4-0.2v0.2c0,0.1,0,0.3-0.1,0.4
			c-0.1-0.1-0.2-0.2-0.2-0.3c-0.2-0.2-0.3-0.4-0.4-0.5c-0.1-0.1-0.2-0.2-0.3-0.4c-0.1-0.1-0.2-0.3-0.2-0.3c0-0.1,0-0.1,0-0.1
			c0-0.1,0-0.2,0.3-0.2c0.2,0,0.4,0.1,0.6,0.4l0.1,0.1l1.2-0.5l-0.1-0.2c-0.1-0.3-0.4-0.6-0.7-0.9c-0.3-0.2-0.7-0.4-1.2-0.4
			s-1,0.1-1.3,0.4s-0.5,0.6-0.5,1.1c0,0.3,0.1,0.6,0.4,0.9c-0.7,0.5-1.1,1.1-1.1,1.8c0,0.5,0.2,1,0.6,1.3c0.4,0.4,0.9,0.5,1.6,0.5
			c0.5,0,1-0.1,1.4-0.4l0.2,0.3h1.9L183.8,30.9z M180.9,31c-0.1-0.1-0.2-0.2-0.2-0.4c0-0.2,0.1-0.5,0.3-0.7l0.9,1
			C181.6,31.2,181.2,31.2,180.9,31z"/>
		<path class="st1" d="M104.3,43.5c0.1-0.1,0.2-0.3,0.3-0.4c0.2-0.4,0.3-0.8,0.3-1.2c0-0.8-0.3-1.5-0.9-2s-1.4-0.7-2.5-0.7h-3.8v9.2
			h4.2c1,0,1.8-0.3,2.3-0.8c0.6-0.5,0.9-1.2,0.9-2.1c0-0.6-0.2-1.1-0.5-1.5C104.6,43.8,104.5,43.7,104.3,43.5z M100.4,42.6v-1.1h1.1
			c0.8,0,0.8,0.3,0.8,0.5c0,0.3-0.1,0.4-0.2,0.4c-0.1,0.1-0.4,0.2-0.6,0.2C101.5,42.6,100.4,42.6,100.4,42.6z M102.6,45.5
			c0,0.2-0.1,0.4-0.2,0.5c-0.2,0.1-0.4,0.2-0.6,0.2h-1.4v-1.3h1.4c0.3,0,0.5,0.1,0.6,0.2C102.6,45.2,102.6,45.3,102.6,45.5z"/>
		<polygon class="st1" points="115,46.2 111.2,46.2 111.2,39.3 108.6,39.3 108.6,48.4 115,48.4 		"/>
		<path class="st1" d="M124.7,47.3c0.8-0.9,1.2-2,1.2-3.4s-0.4-2.6-1.2-3.4c-0.8-0.9-1.8-1.3-3.1-1.3c-1.3,0-2.3,0.4-3.1,1.3
			c-0.8,0.9-1.2,2-1.2,3.4s0.4,2.6,1.2,3.4c0.8,0.9,1.8,1.3,3.1,1.3C122.8,48.6,123.9,48.2,124.7,47.3z M122.7,45.7
			c-0.3,0.4-0.6,0.6-1.1,0.6s-0.9-0.2-1.1-0.6c-0.3-0.4-0.5-1.1-0.5-1.9c0-0.8,0.2-1.4,0.5-1.9l0,0c0.3-0.4,0.6-0.6,1.1-0.6
			s0.9,0.2,1.1,0.6c0.3,0.5,0.5,1.1,0.5,1.9C123.2,44.7,123,45.3,122.7,45.7z"/>
		<path class="st1" d="M134.2,48.4c0.4-0.1,0.7-0.3,1-0.4c0.3-0.2,0.5-0.4,0.7-0.6c0.2-0.2,0.4-0.5,0.5-0.7s0.2-0.4,0.3-0.7l0.2-0.4
			l-2.4-0.7l-0.1,0.3c-0.1,0.3-0.3,0.6-0.6,0.8s-0.6,0.3-0.9,0.3c-0.5,0-0.9-0.2-1.2-0.6c-0.3-0.5-0.5-1.1-0.5-1.9
			c0-0.8,0.2-1.4,0.5-1.9c0.3-0.4,0.7-0.6,1.2-0.6c0.3,0,0.6,0.1,0.8,0.2c0.2,0.2,0.4,0.4,0.6,0.7l0.2,0.3l2.3-0.7l-0.2-0.4
			c-0.3-0.7-0.8-1.2-1.4-1.7c-0.6-0.5-1.4-0.7-2.2-0.7c-1.3,0-2.3,0.4-3.2,1.3c-0.8,0.9-1.2,2-1.2,3.5s0.4,2.6,1.2,3.5
			s1.9,1.3,3.1,1.3C133.4,48.6,133.9,48.5,134.2,48.4z"/>
		<polygon class="st1" points="148.3,48.4 144.6,43.4 148.4,39.3 145.1,39.3 142.6,42 142.6,39.3 140,39.3 140,48.4 142.6,48.4 
			142.6,45.5 142.9,45.2 145.2,48.4 		"/>
		<path class="st1" d="M155.5,48.4c0.4-0.1,0.7-0.3,1-0.4c0.3-0.2,0.5-0.4,0.7-0.6c0.2-0.2,0.4-0.5,0.5-0.7s0.2-0.4,0.3-0.7l0.2-0.4
			l-2.4-0.7l-0.1,0.3c-0.1,0.3-0.3,0.6-0.6,0.8s-0.6,0.3-0.9,0.3c-0.5,0-0.9-0.2-1.2-0.6c-0.3-0.5-0.5-1.1-0.5-1.9
			c0-0.8,0.2-1.4,0.5-1.9c0.3-0.4,0.7-0.6,1.2-0.6c0.3,0,0.6,0.1,0.8,0.2c0.2,0.2,0.4,0.4,0.6,0.7l0.2,0.3l2.3-0.7l-0.2-0.4
			c-0.3-0.7-0.8-1.2-1.4-1.7c-0.6-0.5-1.4-0.7-2.2-0.7c-1.3,0-2.3,0.4-3.2,1.3c-0.8,0.9-1.2,2-1.2,3.5s0.4,2.6,1.2,3.5
			s1.9,1.3,3.1,1.3C154.7,48.6,155.1,48.5,155.5,48.4z"/>
		<polygon class="st1" points="166.1,42.6 163.8,42.6 163.8,39.3 161.2,39.3 161.2,48.4 163.8,48.4 163.8,44.8 166.1,44.8 
			166.1,48.4 168.7,48.4 168.7,39.3 166.1,39.3 		"/>
		<path class="st1" d="M195.8,39.3V43c0,0.2,0,0.5,0,0.7l-2.5-4.4h-2.4v9.2h2.6v-3.7c0-0.2,0-0.4,0-0.6l2.5,4.3h2.4v-9.2H195.8z"/>
		<path class="st1" d="M101.1,57.3c0.6,0,1.1,0.3,1.5,0.8l0.2,0.2l2.2-0.7l-0.2-0.4c-0.3-0.6-0.8-1.2-1.4-1.6
			c-0.6-0.4-1.4-0.6-2.2-0.6c-1,0-1.9,0.2-2.5,0.7c-0.7,0.5-1.1,1.2-1.1,2c0,1,0.5,1.8,1.5,2.3c0.3,0.2,0.9,0.4,1.8,0.6
			c0.5,0.2,0.9,0.3,1.1,0.5c0.2,0.1,0.2,0.3,0.2,0.5s-0.1,0.3-0.2,0.4c-0.3,0.3-1.1,0.3-1.7-0.1c-0.3-0.2-0.6-0.4-0.7-0.7l-0.2-0.3
			l-2.3,0.7l0.2,0.4c0.3,0.7,0.8,1.3,1.5,1.7s1.5,0.6,2.4,0.6c1,0,1.9-0.2,2.6-0.7c0.7-0.5,1.1-1.2,1.1-2.2c0-0.4-0.1-0.8-0.2-1.1
			c-0.2-0.3-0.4-0.6-0.7-0.8c-0.3-0.2-0.5-0.4-0.8-0.5s-0.6-0.2-0.9-0.4c-0.1,0-0.2-0.1-0.5-0.1c-0.2-0.1-0.4-0.1-0.5-0.1
			s-0.2-0.1-0.4-0.1c-0.2-0.1-0.3-0.1-0.3-0.1c-0.1-0.1-0.2-0.1-0.3-0.2c-0.1,0-0.1-0.1-0.1-0.1s0-0.1,0-0.2c0-0.1,0.1-0.2,0.2-0.3
			C100.5,57.3,100.8,57.3,101.1,57.3z"/>
		<path class="st1" d="M112.8,60.8c0,1.3-0.6,1.5-1.1,1.5c-0.6,0-1.1-0.2-1.1-1.5v-5.6H108v5.6c0,1.2,0.3,2.2,1,2.8s1.6,0.9,2.7,0.9
			c1.2,0,2.2-0.3,2.8-1c0.6-0.7,0.9-1.6,0.9-2.8v-5.6h-2.6C112.8,55.1,112.8,60.8,112.8,60.8z"/>
		<path class="st1" d="M124.1,59c-0.1,0.2-0.2,0.6-0.4,1.1c-0.1-0.5-0.3-0.8-0.4-1.1l-1.4-3.8h-2.8v9.2h2.6v-3.5l1.1,3.2h1.8
			l1.1-3.1v3.5h2.6v-9.2h-2.8L124.1,59z"/>
		<path class="st1" d="M137,59c-0.1,0.2-0.2,0.6-0.4,1.1c-0.1-0.5-0.3-0.8-0.4-1.1l-1.4-3.8H132v9.2h2.6v-3.5l1.1,3.2h1.8l1.1-3.1
			v3.5h2.6v-9.2h-2.8L137,59z"/>
		<polygon class="st1" points="151.8,57.4 154.3,57.4 154.3,64.3 156.9,64.3 156.9,57.4 159.3,57.4 159.3,55.2 151.8,55.2 		"/>
		<path class="st1" d="M142.1,30.6h2.5l0.6,1.9h2.7l-3.4-9.2H142l-3.4,9.2h2.7L142.1,30.6z M143.1,27.2c0.1-0.3,0.2-0.7,0.3-1.1
			c0.1,0.3,0.2,0.7,0.3,1.1l0.5,1.5h-1.6L143.1,27.2z"/>
		<path class="st1" d="M164.4,32.5l-3.4-9.2h-2.5l-3.4,9.2h2.7l0.6-1.9h2.5l0.6,1.9H164.4z M160.6,28.6H159l0.5-1.5
			c0.1-0.3,0.2-0.7,0.3-1.1c0.1,0.3,0.2,0.7,0.3,1.1L160.6,28.6z"/>
		<path class="st1" d="M174.7,39.3l-3.4,9.2h2.7l0.6-1.9h2.5l0.6,1.9h2.7l-3.4-9.2H174.7z M176.7,44.5h-1.6l0.5-1.5
			c0.1-0.3,0.2-0.7,0.3-1.1c0.1,0.3,0.2,0.7,0.3,1.1L176.7,44.5z"/>
		<polygon class="st1" points="174,32.5 174,30.2 173,30.2 173,25.6 174,25.6 174,23.3 173,23.3 170.4,23.3 169.3,23.3 169.3,25.6 
			170.4,25.6 170.4,30.2 169.3,30.2 169.3,32.5 170.4,32.5 173,32.5 		"/>
		<polygon class="st1" points="184.5,39.3 183.4,39.3 183.4,41.5 184.5,41.5 184.5,46.2 183.4,46.2 183.4,48.4 184.5,48.4 187,48.4 
			188.1,48.4 188.1,46.2 187,46.2 187,41.5 188.1,41.5 188.1,39.3 187,39.3 		"/>
		<polygon class="st1" points="145.2,55.2 144.2,55.2 144.2,57.4 145.2,57.4 145.2,62.1 144.2,62.1 144.2,64.3 145.2,64.3 
			147.8,64.3 148.8,64.3 148.8,62.1 147.8,62.1 147.8,57.4 148.8,57.4 148.8,55.2 147.8,55.2 		"/>
	</g>
</g>
<g>
	<path class="st1" d="M98.1,72.3h3.2c-1.2,2-1.9,4.2-2.4,6.7l-0.1,0.4h2.5l0.1-0.3c0.8-3.2,1.7-5.5,2.8-7.3l0.1-0.1V70h-6.2V72.3z"
		/>
	<rect x="107.2" y="73.8" class="st1" width="6" height="2.2"/>
	<path class="st1" d="M121.5,74.6c0.5-0.5,0.8-1.1,0.8-1.8c0-0.7-0.3-1.3-0.9-1.9c-0.5-0.5-1.2-0.8-2.1-0.8s-1.6,0.3-2.1,0.8
		c-0.6,0.5-0.9,1.2-0.9,2c0,0.7,0.3,1.3,0.8,1.8c-0.1,0.1-0.2,0.2-0.3,0.3c0,0.1-0.1,0.2-0.2,0.3c-0.1,0.1-0.2,0.2-0.3,0.4
		c-0.2,0.4-0.4,0.7-0.4,1.2c0,0.8,0.4,1.5,1.1,2.2c0.6,0.5,1.4,0.8,2.3,0.8c1,0,1.8-0.3,2.3-0.8c0.6-0.6,0.9-1.3,0.9-2.1
		c0-0.6-0.1-1.1-0.5-1.5C122,74.9,121.8,74.7,121.5,74.6z M118.7,75.9c0.1-0.2,0.3-0.2,0.5-0.2s0.4,0.1,0.5,0.2
		c0.2,0.2,0.2,0.5,0.2,0.7c0,0.3-0.1,0.5-0.2,0.7s-0.3,0.2-0.5,0.2s-0.4-0.1-0.6-0.3c-0.1-0.1-0.2-0.4-0.2-0.7
		C118.4,76.4,118.5,76.1,118.7,75.9z M119.5,72.2c0.1,0.1,0.1,0.3,0.1,0.6c0,0.2,0,0.5-0.1,0.6l-0.1,0.1c0,0.1-0.3,0.2-0.6-0.1
		c-0.1-0.1-0.1-0.3-0.1-0.6c0-0.3,0-0.4,0.2-0.6C118.9,72.1,119.2,72,119.5,72.2z"/>
	<path class="st1" d="M135.5,74c0,0.3,0,0.5,0,0.8l-2.4-4.5h-2.4v9.2h2.3v-3.7c0-0.3,0-0.6,0-0.9l2.5,4.7h2.4v-9.2h-2.4L135.5,74
		L135.5,74z"/>
	<path class="st1" d="M145.1,70.1c-1.2,0-2.2,0.4-3,1.3c-0.7,0.8-1.1,2-1.1,3.4c0,1.5,0.3,2.6,1.1,3.4c0.8,0.9,1.8,1.3,3,1.3
		s2.2-0.4,3-1.3c0.7-0.8,1.1-2,1.1-3.4c0-1.5-0.4-2.6-1.1-3.4C147.3,70.5,146.3,70.1,145.1,70.1z M144,72.8c0.2-0.4,0.6-0.6,1.1-0.6
		s0.9,0.2,1.1,0.6c0.3,0.6,0.5,1.3,0.5,2c0,0.8-0.2,1.6-0.5,2c-0.2,0.4-0.6,0.6-1.1,0.6s-0.9-0.2-1.1-0.6c-0.3-0.6-0.5-1.3-0.5-2
		C143.5,74,143.7,73.4,144,72.8z"/>
	<path class="st1" d="M156.8,70.2l-1.2,4.6c-0.1,0.2-0.2,0.5-0.3,1c-0.1-0.3-0.2-0.6-0.3-1l-1.3-4.7h-2.6l3,9.2h2.4l2.9-9.2
		L156.8,70.2L156.8,70.2z"/>
</g>
</svg>
